<mxfile host="app.diagrams.net" agent="Mozilla/5.0 (Windows NT 10.0; Win64; x64) AppleWebKit/537.36 (KHTML, like Gecko) Chrome/132.0.0.0 Safari/537.36" version="26.0.6" pages="4">
  <diagram name="Page-1" id="iXeejw_BoFEDkJOzYzDt">
    <mxGraphModel dx="1778" dy="923" grid="0" gridSize="10" guides="1" tooltips="1" connect="1" arrows="1" fold="1" page="1" pageScale="1" pageWidth="4681" pageHeight="3300" math="0" shadow="0">
      <root>
        <mxCell id="0" />
        <mxCell id="1" parent="0" />
        <mxCell id="CR4Q3jNyHGY_8PaVD7FN-2" style="edgeStyle=orthogonalEdgeStyle;rounded=0;orthogonalLoop=1;jettySize=auto;html=1;entryX=0;entryY=0.5;entryDx=0;entryDy=0;" parent="1" source="CR4Q3jNyHGY_8PaVD7FN-3" target="CR4Q3jNyHGY_8PaVD7FN-12" edge="1">
          <mxGeometry relative="1" as="geometry" />
        </mxCell>
        <mxCell id="CR4Q3jNyHGY_8PaVD7FN-3" value="Register as tenat" style="rounded=1;whiteSpace=wrap;html=1;fillColor=#dae8fc;strokeColor=#6c8ebf;" parent="1" vertex="1">
          <mxGeometry x="328" y="272.5" width="120" height="28" as="geometry" />
        </mxCell>
        <mxCell id="CR4Q3jNyHGY_8PaVD7FN-4" style="edgeStyle=orthogonalEdgeStyle;rounded=0;orthogonalLoop=1;jettySize=auto;html=1;entryX=0;entryY=0.5;entryDx=0;entryDy=0;" parent="1" source="CR4Q3jNyHGY_8PaVD7FN-5" target="CR4Q3jNyHGY_8PaVD7FN-12" edge="1">
          <mxGeometry relative="1" as="geometry" />
        </mxCell>
        <mxCell id="CR4Q3jNyHGY_8PaVD7FN-5" value="Register as owner" style="rounded=1;whiteSpace=wrap;html=1;fillColor=#dae8fc;strokeColor=#6c8ebf;" parent="1" vertex="1">
          <mxGeometry x="328" y="428.5" width="120" height="28" as="geometry" />
        </mxCell>
        <mxCell id="CR4Q3jNyHGY_8PaVD7FN-6" style="edgeStyle=orthogonalEdgeStyle;rounded=0;orthogonalLoop=1;jettySize=auto;html=1;entryX=0;entryY=0.5;entryDx=0;entryDy=0;" parent="1" source="CR4Q3jNyHGY_8PaVD7FN-50" target="CR4Q3jNyHGY_8PaVD7FN-3" edge="1">
          <mxGeometry relative="1" as="geometry" />
        </mxCell>
        <mxCell id="CR4Q3jNyHGY_8PaVD7FN-7" style="edgeStyle=orthogonalEdgeStyle;rounded=0;orthogonalLoop=1;jettySize=auto;html=1;entryX=0;entryY=0.5;entryDx=0;entryDy=0;" parent="1" source="CR4Q3jNyHGY_8PaVD7FN-50" target="CR4Q3jNyHGY_8PaVD7FN-5" edge="1">
          <mxGeometry relative="1" as="geometry" />
        </mxCell>
        <mxCell id="CR4Q3jNyHGY_8PaVD7FN-8" style="rounded=0;orthogonalLoop=1;jettySize=auto;html=1;entryX=0;entryY=0.5;entryDx=0;entryDy=0;elbow=vertical;edgeStyle=orthogonalEdgeStyle;" parent="1" source="CR4Q3jNyHGY_8PaVD7FN-12" target="CR4Q3jNyHGY_8PaVD7FN-22" edge="1">
          <mxGeometry relative="1" as="geometry" />
        </mxCell>
        <mxCell id="CR4Q3jNyHGY_8PaVD7FN-9" style="rounded=0;orthogonalLoop=1;jettySize=auto;html=1;elbow=vertical;edgeStyle=orthogonalEdgeStyle;" parent="1" source="CR4Q3jNyHGY_8PaVD7FN-12" target="CR4Q3jNyHGY_8PaVD7FN-20" edge="1">
          <mxGeometry relative="1" as="geometry" />
        </mxCell>
        <mxCell id="CR4Q3jNyHGY_8PaVD7FN-10" style="rounded=0;orthogonalLoop=1;jettySize=auto;html=1;entryX=0;entryY=0.5;entryDx=0;entryDy=0;elbow=vertical;edgeStyle=orthogonalEdgeStyle;" parent="1" source="CR4Q3jNyHGY_8PaVD7FN-12" target="CR4Q3jNyHGY_8PaVD7FN-24" edge="1">
          <mxGeometry relative="1" as="geometry" />
        </mxCell>
        <mxCell id="mdggnKEjDzfK467Z8Jay-3" style="edgeStyle=orthogonalEdgeStyle;rounded=0;orthogonalLoop=1;jettySize=auto;html=1;entryX=0;entryY=0.5;entryDx=0;entryDy=0;" edge="1" parent="1" source="CR4Q3jNyHGY_8PaVD7FN-12" target="mdggnKEjDzfK467Z8Jay-2">
          <mxGeometry relative="1" as="geometry" />
        </mxCell>
        <mxCell id="CR4Q3jNyHGY_8PaVD7FN-12" value="Verify Details" style="rounded=1;whiteSpace=wrap;html=1;" parent="1" vertex="1">
          <mxGeometry x="526" y="339.5" width="93" height="34" as="geometry" />
        </mxCell>
        <mxCell id="CR4Q3jNyHGY_8PaVD7FN-13" style="edgeStyle=orthogonalEdgeStyle;rounded=0;orthogonalLoop=1;jettySize=auto;html=1;entryX=0.5;entryY=1;entryDx=0;entryDy=0;" parent="1" source="CR4Q3jNyHGY_8PaVD7FN-14" target="CR4Q3jNyHGY_8PaVD7FN-88" edge="1">
          <mxGeometry relative="1" as="geometry" />
        </mxCell>
        <mxCell id="CR4Q3jNyHGY_8PaVD7FN-14" value="Login as tenat" style="rounded=1;whiteSpace=wrap;html=1;fillColor=#fff2cc;strokeColor=#d6b656;" parent="1" vertex="1">
          <mxGeometry x="328" y="135.5" width="120" height="28" as="geometry" />
        </mxCell>
        <mxCell id="CR4Q3jNyHGY_8PaVD7FN-15" style="edgeStyle=orthogonalEdgeStyle;rounded=0;orthogonalLoop=1;jettySize=auto;html=1;entryX=0.5;entryY=0;entryDx=0;entryDy=0;" parent="1" source="CR4Q3jNyHGY_8PaVD7FN-16" target="CR4Q3jNyHGY_8PaVD7FN-40" edge="1">
          <mxGeometry relative="1" as="geometry" />
        </mxCell>
        <mxCell id="CR4Q3jNyHGY_8PaVD7FN-16" value="Login as owner" style="rounded=1;whiteSpace=wrap;html=1;fillColor=#fff2cc;strokeColor=#d6b656;" parent="1" vertex="1">
          <mxGeometry x="328" y="576.5" width="120" height="28" as="geometry" />
        </mxCell>
        <mxCell id="CR4Q3jNyHGY_8PaVD7FN-17" style="edgeStyle=orthogonalEdgeStyle;rounded=0;orthogonalLoop=1;jettySize=auto;html=1;entryX=0;entryY=0.5;entryDx=0;entryDy=0;" parent="1" source="CR4Q3jNyHGY_8PaVD7FN-50" target="CR4Q3jNyHGY_8PaVD7FN-14" edge="1">
          <mxGeometry relative="1" as="geometry" />
        </mxCell>
        <mxCell id="CR4Q3jNyHGY_8PaVD7FN-18" style="edgeStyle=orthogonalEdgeStyle;rounded=0;orthogonalLoop=1;jettySize=auto;html=1;entryX=0;entryY=0.5;entryDx=0;entryDy=0;" parent="1" source="CR4Q3jNyHGY_8PaVD7FN-50" target="CR4Q3jNyHGY_8PaVD7FN-16" edge="1">
          <mxGeometry relative="1" as="geometry" />
        </mxCell>
        <mxCell id="CR4Q3jNyHGY_8PaVD7FN-19" style="edgeStyle=orthogonalEdgeStyle;rounded=0;orthogonalLoop=1;jettySize=auto;html=1;entryX=0;entryY=0.5;entryDx=0;entryDy=0;" parent="1" source="CR4Q3jNyHGY_8PaVD7FN-20" target="CR4Q3jNyHGY_8PaVD7FN-28" edge="1">
          <mxGeometry relative="1" as="geometry" />
        </mxCell>
        <mxCell id="CR4Q3jNyHGY_8PaVD7FN-20" value="Phone Number" style="rounded=1;whiteSpace=wrap;html=1;" parent="1" vertex="1">
          <mxGeometry x="711" y="312.5" width="93" height="34" as="geometry" />
        </mxCell>
        <mxCell id="CR4Q3jNyHGY_8PaVD7FN-21" style="edgeStyle=orthogonalEdgeStyle;rounded=0;orthogonalLoop=1;jettySize=auto;html=1;entryX=0;entryY=0.5;entryDx=0;entryDy=0;" parent="1" source="CR4Q3jNyHGY_8PaVD7FN-22" target="CR4Q3jNyHGY_8PaVD7FN-28" edge="1">
          <mxGeometry relative="1" as="geometry" />
        </mxCell>
        <mxCell id="CR4Q3jNyHGY_8PaVD7FN-22" value="Full Name" style="rounded=1;whiteSpace=wrap;html=1;" parent="1" vertex="1">
          <mxGeometry x="711" y="258.5" width="93" height="34" as="geometry" />
        </mxCell>
        <mxCell id="CR4Q3jNyHGY_8PaVD7FN-23" style="edgeStyle=orthogonalEdgeStyle;rounded=0;orthogonalLoop=1;jettySize=auto;html=1;entryX=0;entryY=0.5;entryDx=0;entryDy=0;" parent="1" source="CR4Q3jNyHGY_8PaVD7FN-24" target="CR4Q3jNyHGY_8PaVD7FN-28" edge="1">
          <mxGeometry relative="1" as="geometry" />
        </mxCell>
        <mxCell id="CR4Q3jNyHGY_8PaVD7FN-24" value="PIN" style="rounded=1;whiteSpace=wrap;html=1;" parent="1" vertex="1">
          <mxGeometry x="711" y="366.5" width="93" height="34" as="geometry" />
        </mxCell>
        <mxCell id="mdggnKEjDzfK467Z8Jay-1" style="edgeStyle=orthogonalEdgeStyle;rounded=0;orthogonalLoop=1;jettySize=auto;html=1;entryX=0;entryY=0.5;entryDx=0;entryDy=0;" edge="1" parent="1" source="CR4Q3jNyHGY_8PaVD7FN-28" target="CR4Q3jNyHGY_8PaVD7FN-34">
          <mxGeometry relative="1" as="geometry" />
        </mxCell>
        <mxCell id="CR4Q3jNyHGY_8PaVD7FN-28" value="Sign Up" style="rounded=1;whiteSpace=wrap;html=1;" parent="1" vertex="1">
          <mxGeometry x="878" y="339.5" width="73" height="31" as="geometry" />
        </mxCell>
        <mxCell id="CR4Q3jNyHGY_8PaVD7FN-32" style="edgeStyle=orthogonalEdgeStyle;rounded=0;orthogonalLoop=1;jettySize=auto;html=1;entryX=0;entryY=0.5;entryDx=0;entryDy=0;" parent="1" source="CR4Q3jNyHGY_8PaVD7FN-34" target="CR4Q3jNyHGY_8PaVD7FN-38" edge="1">
          <mxGeometry relative="1" as="geometry" />
        </mxCell>
        <mxCell id="CR4Q3jNyHGY_8PaVD7FN-34" value="Registration Successful" style="rounded=1;whiteSpace=wrap;html=1;fillColor=#d5e8d4;strokeColor=#82b366;" parent="1" vertex="1">
          <mxGeometry x="1016" y="339.5" width="163" height="31" as="geometry" />
        </mxCell>
        <mxCell id="CR4Q3jNyHGY_8PaVD7FN-38" value="You are successfully registered in the rentkhojo owner portal - email" style="rounded=1;whiteSpace=wrap;html=1;" parent="1" vertex="1">
          <mxGeometry x="1256" y="305.5" width="120" height="97.5" as="geometry" />
        </mxCell>
        <mxCell id="CR4Q3jNyHGY_8PaVD7FN-39" style="edgeStyle=orthogonalEdgeStyle;rounded=0;orthogonalLoop=1;jettySize=auto;html=1;entryX=0;entryY=0.5;entryDx=0;entryDy=0;" parent="1" source="CR4Q3jNyHGY_8PaVD7FN-40" target="CR4Q3jNyHGY_8PaVD7FN-42" edge="1">
          <mxGeometry relative="1" as="geometry" />
        </mxCell>
        <mxCell id="CR4Q3jNyHGY_8PaVD7FN-40" value="Enter Phone Number" style="rounded=1;whiteSpace=wrap;html=1;" parent="1" vertex="1">
          <mxGeometry x="316" y="656.5" width="144" height="26" as="geometry" />
        </mxCell>
        <mxCell id="CR4Q3jNyHGY_8PaVD7FN-41" style="edgeStyle=orthogonalEdgeStyle;rounded=0;orthogonalLoop=1;jettySize=auto;html=1;entryX=0;entryY=0.5;entryDx=0;entryDy=0;" parent="1" source="CR4Q3jNyHGY_8PaVD7FN-42" target="CR4Q3jNyHGY_8PaVD7FN-46" edge="1">
          <mxGeometry relative="1" as="geometry">
            <mxPoint x="871.4782608695655" y="669.5" as="targetPoint" />
          </mxGeometry>
        </mxCell>
        <mxCell id="CR4Q3jNyHGY_8PaVD7FN-42" value="PIN" style="rounded=1;whiteSpace=wrap;html=1;" parent="1" vertex="1">
          <mxGeometry x="697.5" y="655" width="120" height="29" as="geometry" />
        </mxCell>
        <mxCell id="CR4Q3jNyHGY_8PaVD7FN-43" style="edgeStyle=orthogonalEdgeStyle;rounded=0;orthogonalLoop=1;jettySize=auto;html=1;entryX=0.5;entryY=0;entryDx=0;entryDy=0;" parent="1" source="CR4Q3jNyHGY_8PaVD7FN-46" target="CR4Q3jNyHGY_8PaVD7FN-47" edge="1">
          <mxGeometry relative="1" as="geometry" />
        </mxCell>
        <mxCell id="CR4Q3jNyHGY_8PaVD7FN-44" style="edgeStyle=orthogonalEdgeStyle;rounded=0;orthogonalLoop=1;jettySize=auto;html=1;entryX=0.5;entryY=0;entryDx=0;entryDy=0;" parent="1" source="CR4Q3jNyHGY_8PaVD7FN-46" target="CR4Q3jNyHGY_8PaVD7FN-53" edge="1">
          <mxGeometry relative="1" as="geometry" />
        </mxCell>
        <mxCell id="CR4Q3jNyHGY_8PaVD7FN-45" style="edgeStyle=orthogonalEdgeStyle;rounded=0;orthogonalLoop=1;jettySize=auto;html=1;entryX=0.5;entryY=0;entryDx=0;entryDy=0;" parent="1" source="CR4Q3jNyHGY_8PaVD7FN-46" target="CR4Q3jNyHGY_8PaVD7FN-56" edge="1">
          <mxGeometry relative="1" as="geometry" />
        </mxCell>
        <mxCell id="CR4Q3jNyHGY_8PaVD7FN-46" value="Login Successful" style="rounded=1;whiteSpace=wrap;html=1;" parent="1" vertex="1">
          <mxGeometry x="952.5" y="656.5" width="144" height="26" as="geometry" />
        </mxCell>
        <mxCell id="CR4Q3jNyHGY_8PaVD7FN-47" value="Profile" style="rounded=1;whiteSpace=wrap;html=1;" parent="1" vertex="1">
          <mxGeometry x="873.5" y="754.5" width="82" height="47" as="geometry" />
        </mxCell>
        <mxCell id="CR4Q3jNyHGY_8PaVD7FN-48" style="edgeStyle=orthogonalEdgeStyle;rounded=0;orthogonalLoop=1;jettySize=auto;html=1;entryX=0.25;entryY=1;entryDx=0;entryDy=0;curved=1;" parent="1" source="CR4Q3jNyHGY_8PaVD7FN-49" target="CR4Q3jNyHGY_8PaVD7FN-47" edge="1">
          <mxGeometry relative="1" as="geometry" />
        </mxCell>
        <mxCell id="CR4Q3jNyHGY_8PaVD7FN-49" value="Contains profile&lt;div&gt;information&lt;/div&gt;" style="text;html=1;align=right;verticalAlign=middle;resizable=0;points=[];autosize=1;strokeColor=none;fillColor=none;" parent="1" vertex="1">
          <mxGeometry x="738" y="823.5" width="101" height="41" as="geometry" />
        </mxCell>
        <mxCell id="CR4Q3jNyHGY_8PaVD7FN-50" value="" style="rounded=1;whiteSpace=wrap;html=1;container=0;" parent="1" vertex="1">
          <mxGeometry x="40" y="318.5" width="191" height="86" as="geometry" />
        </mxCell>
        <mxCell id="CR4Q3jNyHGY_8PaVD7FN-51" value="" style="shape=image;verticalLabelPosition=bottom;labelBackgroundColor=default;verticalAlign=top;aspect=fixed;imageAspect=0;image=data:image/png,iVBORw0KGgoAAAANSUhEUgAAAvAAAADGCAYAAAC0GrTjAAAACXBIWXMAAC4jAAAuIwF4pT92AAAKT2lDQ1BQaG90b3Nob3AgSUNDIHByb2ZpbGUAAHjanVNnVFPpFj333vRCS4iAlEtvUhUIIFJCi4AUkSYqIQkQSoghodkVUcERRUUEG8igiAOOjoCMFVEsDIoK2AfkIaKOg6OIisr74Xuja9a89+bN/rXXPues852zzwfACAyWSDNRNYAMqUIeEeCDx8TG4eQuQIEKJHAAEAizZCFz/SMBAPh+PDwrIsAHvgABeNMLCADATZvAMByH/w/qQplcAYCEAcB0kThLCIAUAEB6jkKmAEBGAYCdmCZTAKAEAGDLY2LjAFAtAGAnf+bTAICd+Jl7AQBblCEVAaCRACATZYhEAGg7AKzPVopFAFgwABRmS8Q5ANgtADBJV2ZIALC3AMDOEAuyAAgMADBRiIUpAAR7AGDIIyN4AISZABRG8lc88SuuEOcqAAB4mbI8uSQ5RYFbCC1xB1dXLh4ozkkXKxQ2YQJhmkAuwnmZGTKBNA/g88wAAKCRFRHgg/P9eM4Ors7ONo62Dl8t6r8G/yJiYuP+5c+rcEAAAOF0ftH+LC+zGoA7BoBt/qIl7gRoXgugdfeLZrIPQLUAoOnaV/Nw+H48PEWhkLnZ2eXk5NhKxEJbYcpXff5nwl/AV/1s+X48/Pf14L7iJIEyXYFHBPjgwsz0TKUcz5IJhGLc5o9H/LcL//wd0yLESWK5WCoU41EScY5EmozzMqUiiUKSKcUl0v9k4t8s+wM+3zUAsGo+AXuRLahdYwP2SycQWHTA4vcAAPK7b8HUKAgDgGiD4c93/+8//UegJQCAZkmScQAAXkQkLlTKsz/HCAAARKCBKrBBG/TBGCzABhzBBdzBC/xgNoRCJMTCQhBCCmSAHHJgKayCQiiGzbAdKmAv1EAdNMBRaIaTcA4uwlW4Dj1wD/phCJ7BKLyBCQRByAgTYSHaiAFiilgjjggXmYX4IcFIBBKLJCDJiBRRIkuRNUgxUopUIFVIHfI9cgI5h1xGupE7yAAygvyGvEcxlIGyUT3UDLVDuag3GoRGogvQZHQxmo8WoJvQcrQaPYw2oefQq2gP2o8+Q8cwwOgYBzPEbDAuxsNCsTgsCZNjy7EirAyrxhqwVqwDu4n1Y8+xdwQSgUXACTYEd0IgYR5BSFhMWE7YSKggHCQ0EdoJNwkDhFHCJyKTqEu0JroR+cQYYjIxh1hILCPWEo8TLxB7iEPENyQSiUMyJ7mQAkmxpFTSEtJG0m5SI+ksqZs0SBojk8naZGuyBzmULCAryIXkneTD5DPkG+Qh8lsKnWJAcaT4U+IoUspqShnlEOU05QZlmDJBVaOaUt2ooVQRNY9aQq2htlKvUYeoEzR1mjnNgxZJS6WtopXTGmgXaPdpr+h0uhHdlR5Ol9BX0svpR+iX6AP0dwwNhhWDx4hnKBmbGAcYZxl3GK+YTKYZ04sZx1QwNzHrmOeZD5lvVVgqtip8FZHKCpVKlSaVGyovVKmqpqreqgtV81XLVI+pXlN9rkZVM1PjqQnUlqtVqp1Q61MbU2epO6iHqmeob1Q/pH5Z/YkGWcNMw09DpFGgsV/jvMYgC2MZs3gsIWsNq4Z1gTXEJrHN2Xx2KruY/R27iz2qqaE5QzNKM1ezUvOUZj8H45hx+Jx0TgnnKKeX836K3hTvKeIpG6Y0TLkxZVxrqpaXllirSKtRq0frvTau7aedpr1Fu1n7gQ5Bx0onXCdHZ4/OBZ3nU9lT3acKpxZNPTr1ri6qa6UbobtEd79up+6Ynr5egJ5Mb6feeb3n+hx9L/1U/W36p/VHDFgGswwkBtsMzhg8xTVxbzwdL8fb8VFDXcNAQ6VhlWGX4YSRudE8o9VGjUYPjGnGXOMk423GbcajJgYmISZLTepN7ppSTbmmKaY7TDtMx83MzaLN1pk1mz0x1zLnm+eb15vft2BaeFostqi2uGVJsuRaplnutrxuhVo5WaVYVVpds0atna0l1rutu6cRp7lOk06rntZnw7Dxtsm2qbcZsOXYBtuutm22fWFnYhdnt8Wuw+6TvZN9un2N/T0HDYfZDqsdWh1+c7RyFDpWOt6azpzuP33F9JbpL2dYzxDP2DPjthPLKcRpnVOb00dnF2e5c4PziIuJS4LLLpc+Lpsbxt3IveRKdPVxXeF60vWdm7Obwu2o26/uNu5p7ofcn8w0nymeWTNz0MPIQ+BR5dE/C5+VMGvfrH5PQ0+BZ7XnIy9jL5FXrdewt6V3qvdh7xc+9j5yn+M+4zw33jLeWV/MN8C3yLfLT8Nvnl+F30N/I/9k/3r/0QCngCUBZwOJgUGBWwL7+Hp8Ib+OPzrbZfay2e1BjKC5QRVBj4KtguXBrSFoyOyQrSH355jOkc5pDoVQfujW0Adh5mGLw34MJ4WHhVeGP45wiFga0TGXNXfR3ENz30T6RJZE3ptnMU85ry1KNSo+qi5qPNo3ujS6P8YuZlnM1VidWElsSxw5LiquNm5svt/87fOH4p3iC+N7F5gvyF1weaHOwvSFpxapLhIsOpZATIhOOJTwQRAqqBaMJfITdyWOCnnCHcJnIi/RNtGI2ENcKh5O8kgqTXqS7JG8NXkkxTOlLOW5hCepkLxMDUzdmzqeFpp2IG0yPTq9MYOSkZBxQqohTZO2Z+pn5mZ2y6xlhbL+xW6Lty8elQfJa7OQrAVZLQq2QqboVFoo1yoHsmdlV2a/zYnKOZarnivN7cyzytuQN5zvn//tEsIS4ZK2pYZLVy0dWOa9rGo5sjxxedsK4xUFK4ZWBqw8uIq2Km3VT6vtV5eufr0mek1rgV7ByoLBtQFr6wtVCuWFfevc1+1dT1gvWd+1YfqGnRs+FYmKrhTbF5cVf9go3HjlG4dvyr+Z3JS0qavEuWTPZtJm6ebeLZ5bDpaql+aXDm4N2dq0Dd9WtO319kXbL5fNKNu7g7ZDuaO/PLi8ZafJzs07P1SkVPRU+lQ27tLdtWHX+G7R7ht7vPY07NXbW7z3/T7JvttVAVVN1WbVZftJ+7P3P66Jqun4lvttXa1ObXHtxwPSA/0HIw6217nU1R3SPVRSj9Yr60cOxx++/p3vdy0NNg1VjZzG4iNwRHnk6fcJ3/ceDTradox7rOEH0x92HWcdL2pCmvKaRptTmvtbYlu6T8w+0dbq3nr8R9sfD5w0PFl5SvNUyWna6YLTk2fyz4ydlZ19fi753GDborZ752PO32oPb++6EHTh0kX/i+c7vDvOXPK4dPKy2+UTV7hXmq86X23qdOo8/pPTT8e7nLuarrlca7nuer21e2b36RueN87d9L158Rb/1tWeOT3dvfN6b/fF9/XfFt1+cif9zsu72Xcn7q28T7xf9EDtQdlD3YfVP1v+3Njv3H9qwHeg89HcR/cGhYPP/pH1jw9DBY+Zj8uGDYbrnjg+OTniP3L96fynQ89kzyaeF/6i/suuFxYvfvjV69fO0ZjRoZfyl5O/bXyl/erA6xmv28bCxh6+yXgzMV70VvvtwXfcdx3vo98PT+R8IH8o/2j5sfVT0Kf7kxmTk/8EA5jz/GMzLdsAAELmaVRYdFhNTDpjb20uYWRvYmUueG1wAAAAAAA8P3hwYWNrZXQgYmVnaW49Iu+7vyIgaWQ9Ilc1TTBNcENlaGlIenJlU3pOVGN6a2M5ZCI/Pgo8eDp4bXBtZXRhIHhtbG5zOng9ImFkb2JlOm5zOm1ldGEvIiB4OnhtcHRrPSJBZG9iZSBYTVAgQ29yZSA1LjUtYzAyMSA3OS4xNTQ5MTEsIDIwMTMvMTAvMjktMTE6NDc6MTYgICAgICAgICI+CiAgIDxyZGY6UkRGIHhtbG5zOnJkZj0iaHR0cDovL3d3dy53My5vcmcvMTk5OS8wMi8yMi1yZGYtc3ludGF4LW5zIyI+CiAgICAgIDxyZGY6RGVzY3JpcHRpb24gcmRmOmFib3V0PSIiCiAgICAgICAgICAgIHhtbG5zOnhtcD0iaHR0cDovL25zLmFkb2JlLmNvbS94YXAvMS4wLyIKICAgICAgICAgICAgeG1sbnM6cGhvdG9zaG9wPSJodHRwOi8vbnMuYWRvYmUuY29tL3Bob3Rvc2hvcC8xLjAvIgogICAgICAgICAgICB4bWxuczpkYz0iaHR0cDovL3B1cmwub3JnL2RjL2VsZW1lbnRzLzEuMS8iCiAgICAgICAgICAgIHhtbG5zOnhtcE1NPSJodHRwOi8vbnMuYWRvYmUuY29tL3hhcC8xLjAvbW0vIgogICAgICAgICAgICB4bWxuczpzdEV2dD0iaHR0cDovL25zLmFkb2JlLmNvbS94YXAvMS4wL3NUeXBlL1Jlc291cmNlRXZlbnQjIgogICAgICAgICAgICB4bWxuczpzdFJlZj0iaHR0cDovL25zLmFkb2JlLmNvbS94YXAvMS4wL3NUeXBlL1Jlc291cmNlUmVmIyIKICAgICAgICAgICAgeG1sbnM6dGlmZj0iaHR0cDovL25zLmFkb2JlLmNvbS90aWZmLzEuMC8iCiAgICAgICAgICAgIHhtbG5zOmV4aWY9Imh0dHA6Ly9ucy5hZG9iZS5jb20vZXhpZi8xLjAvIj4KICAgICAgICAgPHhtcDpDcmVhdG9yVG9vbD5BZG9iZSBQaG90b3Nob3AgQ0MgKFdpbmRvd3MpPC94bXA6Q3JlYXRvclRvb2w+CiAgICAgICAgIDx4bXA6Q3JlYXRlRGF0ZT4yMDI1LTAxLTE3VDAxOjEwOjE3KzA1OjMwPC94bXA6Q3JlYXRlRGF0ZT4KICAgICAgICAgPHhtcDpNZXRhZGF0YURhdGU+MjAyNS0wMS0xN1QwMToxMTozOCswNTozMDwveG1wOk1ldGFkYXRhRGF0ZT4KICAgICAgICAgPHhtcDpNb2RpZnlEYXRlPjIwMjUtMDEtMTdUMDE6MTE6MzgrMDU6MzA8L3htcDpNb2RpZnlEYXRlPgogICAgICAgICA8cGhvdG9zaG9wOlRleHRMYXllcnM+CiAgICAgICAgICAgIDxyZGY6QmFnPgogICAgICAgICAgICAgICA8cmRmOmxpIHJkZjpwYXJzZVR5cGU9IlJlc291cmNlIj4KICAgICAgICAgICAgICAgICAgPHBob3Rvc2hvcDpMYXllck5hbWU+ajwvcGhvdG9zaG9wOkxheWVyTmFtZT4KICAgICAgICAgICAgICAgICAgPHBob3Rvc2hvcDpMYXllclRleHQ+ajwvcGhvdG9zaG9wOkxheWVyVGV4dD4KICAgICAgICAgICAgICAgPC9yZGY6bGk+CiAgICAgICAgICAgICAgIDxyZGY6bGkgcmRmOnBhcnNlVHlwZT0iUmVzb3VyY2UiPgogICAgICAgICAgICAgICAgICA8cGhvdG9zaG9wOkxheWVyTmFtZT5wb3dlcmVkIGJ5PC9waG90b3Nob3A6TGF5ZXJOYW1lPgogICAgICAgICAgICAgICAgICA8cGhvdG9zaG9wOkxheWVyVGV4dD5wb3dlcmVkIGJ5PC9waG90b3Nob3A6TGF5ZXJUZXh0PgogICAgICAgICAgICAgICA8L3JkZjpsaT4KICAgICAgICAgICAgPC9yZGY6QmFnPgogICAgICAgICA8L3Bob3Rvc2hvcDpUZXh0TGF5ZXJzPgogICAgICAgICA8cGhvdG9zaG9wOkRvY3VtZW50QW5jZXN0b3JzPgogICAgICAgICAgICA8cmRmOkJhZz4KICAgICAgICAgICAgICAgPHJkZjpsaT54bXAuZGlkOjBmYTgyZjZlLTY1NzYtMWI0Zi05YzRmLTVhNzc2ZDZlZGFhZjwvcmRmOmxpPgogICAgICAgICAgICAgICA8cmRmOmxpPnhtcC5kaWQ6OGRjNzg2MmYtOTk3Yy0wMzQyLWJkNzgtZWYzYTUxNzkwMjUzPC9yZGY6bGk+CiAgICAgICAgICAgICAgIDxyZGY6bGk+eG1wLmRpZDpiYmExMmIxOC04NGJiLTY2NGQtYTkxNi00MWRmNzVjMWJiZTc8L3JkZjpsaT4KICAgICAgICAgICAgPC9yZGY6QmFnPgogICAgICAgICA8L3Bob3Rvc2hvcDpEb2N1bWVudEFuY2VzdG9ycz4KICAgICAgICAgPHBob3Rvc2hvcDpDb2xvck1vZGU+MzwvcGhvdG9zaG9wOkNvbG9yTW9kZT4KICAgICAgICAgPHBob3Rvc2hvcDpJQ0NQcm9maWxlPnNSR0IgSUVDNjE5NjYtMi4xPC9waG90b3Nob3A6SUNDUHJvZmlsZT4KICAgICAgICAgPGRjOmZvcm1hdD5pbWFnZS9wbmc8L2RjOmZvcm1hdD4KICAgICAgICAgPHhtcE1NOkluc3RhbmNlSUQ+eG1wLmlpZDo0Y2QzZjRkNi04N2M2LTY5NGItOWIyNC02NGI2YWFhM2Q1NjQ8L3htcE1NOkluc3RhbmNlSUQ+CiAgICAgICAgIDx4bXBNTTpEb2N1bWVudElEPnhtcC5kaWQ6NThjNzY2MGUtMjExNS0xYTQ1LWIxNGItYmUzNjlmNTc4YWQzPC94bXBNTTpEb2N1bWVudElEPgogICAgICAgICA8eG1wTU06T3JpZ2luYWxEb2N1bWVudElEPnhtcC5kaWQ6NThjNzY2MGUtMjExNS0xYTQ1LWIxNGItYmUzNjlmNTc4YWQzPC94bXBNTTpPcmlnaW5hbERvY3VtZW50SUQ+CiAgICAgICAgIDx4bXBNTTpIaXN0b3J5PgogICAgICAgICAgICA8cmRmOlNlcT4KICAgICAgICAgICAgICAgPHJkZjpsaSByZGY6cGFyc2VUeXBlPSJSZXNvdXJjZSI+CiAgICAgICAgICAgICAgICAgIDxzdEV2dDphY3Rpb24+Y3JlYXRlZDwvc3RFdnQ6YWN0aW9uPgogICAgICAgICAgICAgICAgICA8c3RFdnQ6aW5zdGFuY2VJRD54bXAuaWlkOjU4Yzc2NjBlLTIxMTUtMWE0NS1iMTRiLWJlMzY5ZjU3OGFkMzwvc3RFdnQ6aW5zdGFuY2VJRD4KICAgICAgICAgICAgICAgICAgPHN0RXZ0OndoZW4+MjAyNS0wMS0xN1QwMToxMDoxNyswNTozMDwvc3RFdnQ6d2hlbj4KICAgICAgICAgICAgICAgICAgPHN0RXZ0OnNvZnR3YXJlQWdlbnQ+QWRvYmUgUGhvdG9zaG9wIENDIChXaW5kb3dzKTwvc3RFdnQ6c29mdHdhcmVBZ2VudD4KICAgICAgICAgICAgICAgPC9yZGY6bGk+CiAgICAgICAgICAgICAgIDxyZGY6bGkgcmRmOnBhcnNlVHlwZT0iUmVzb3VyY2UiPgogICAgICAgICAgICAgICAgICA8c3RFdnQ6YWN0aW9uPnNhdmVkPC9zdEV2dDphY3Rpb24+CiAgICAgICAgICAgICAgICAgIDxzdEV2dDppbnN0YW5jZUlEPnhtcC5paWQ6OWQwZTZjYWItNDNhMS05ZjQ3LTlmYzMtMTMyZWNlODhlN2FmPC9zdEV2dDppbnN0YW5jZUlEPgogICAgICAgICAgICAgICAgICA8c3RFdnQ6d2hlbj4yMDI1LTAxLTE3VDAxOjExOjM4KzA1OjMwPC9zdEV2dDp3aGVuPgogICAgICAgICAgICAgICAgICA8c3RFdnQ6c29mdHdhcmVBZ2VudD5BZG9iZSBQaG90b3Nob3AgQ0MgKFdpbmRvd3MpPC9zdEV2dDpzb2Z0d2FyZUFnZW50PgogICAgICAgICAgICAgICAgICA8c3RFdnQ6Y2hhbmdlZD4vPC9zdEV2dDpjaGFuZ2VkPgogICAgICAgICAgICAgICA8L3JkZjpsaT4KICAgICAgICAgICAgICAgPHJkZjpsaSByZGY6cGFyc2VUeXBlPSJSZXNvdXJjZSI+CiAgICAgICAgICAgICAgICAgIDxzdEV2dDphY3Rpb24+Y29udmVydGVkPC9zdEV2dDphY3Rpb24+CiAgICAgICAgICAgICAgICAgIDxzdEV2dDpwYXJhbWV0ZXJzPmZyb20gYXBwbGljYXRpb24vdm5kLmFkb2JlLnBob3Rvc2hvcCB0byBpbWFnZS9wbmc8L3N0RXZ0OnBhcmFtZXRlcnM+CiAgICAgICAgICAgICAgIDwvcmRmOmxpPgogICAgICAgICAgICAgICA8cmRmOmxpIHJkZjpwYXJzZVR5cGU9IlJlc291cmNlIj4KICAgICAgICAgICAgICAgICAgPHN0RXZ0OmFjdGlvbj5kZXJpdmVkPC9zdEV2dDphY3Rpb24+CiAgICAgICAgICAgICAgICAgIDxzdEV2dDpwYXJhbWV0ZXJzPmNvbnZlcnRlZCBmcm9tIGFwcGxpY2F0aW9uL3ZuZC5hZG9iZS5waG90b3Nob3AgdG8gaW1hZ2UvcG5nPC9zdEV2dDpwYXJhbWV0ZXJzPgogICAgICAgICAgICAgICA8L3JkZjpsaT4KICAgICAgICAgICAgICAgPHJkZjpsaSByZGY6cGFyc2VUeXBlPSJSZXNvdXJjZSI+CiAgICAgICAgICAgICAgICAgIDxzdEV2dDphY3Rpb24+c2F2ZWQ8L3N0RXZ0OmFjdGlvbj4KICAgICAgICAgICAgICAgICAgPHN0RXZ0Omluc3RhbmNlSUQ+eG1wLmlpZDo0Y2QzZjRkNi04N2M2LTY5NGItOWIyNC02NGI2YWFhM2Q1NjQ8L3N0RXZ0Omluc3RhbmNlSUQ+CiAgICAgICAgICAgICAgICAgIDxzdEV2dDp3aGVuPjIwMjUtMDEtMTdUMDE6MTE6MzgrMDU6MzA8L3N0RXZ0OndoZW4+CiAgICAgICAgICAgICAgICAgIDxzdEV2dDpzb2Z0d2FyZUFnZW50PkFkb2JlIFBob3Rvc2hvcCBDQyAoV2luZG93cyk8L3N0RXZ0OnNvZnR3YXJlQWdlbnQ+CiAgICAgICAgICAgICAgICAgIDxzdEV2dDpjaGFuZ2VkPi88L3N0RXZ0OmNoYW5nZWQ+CiAgICAgICAgICAgICAgIDwvcmRmOmxpPgogICAgICAgICAgICA8L3JkZjpTZXE+CiAgICAgICAgIDwveG1wTU06SGlzdG9yeT4KICAgICAgICAgPHhtcE1NOkRlcml2ZWRGcm9tIHJkZjpwYXJzZVR5cGU9IlJlc291cmNlIj4KICAgICAgICAgICAgPHN0UmVmOmluc3RhbmNlSUQ+eG1wLmlpZDo5ZDBlNmNhYi00M2ExLTlmNDctOWZjMy0xMzJlY2U4OGU3YWY8L3N0UmVmOmluc3RhbmNlSUQ+CiAgICAgICAgICAgIDxzdFJlZjpkb2N1bWVudElEPnhtcC5kaWQ6NThjNzY2MGUtMjExNS0xYTQ1LWIxNGItYmUzNjlmNTc4YWQzPC9zdFJlZjpkb2N1bWVudElEPgogICAgICAgICAgICA8c3RSZWY6b3JpZ2luYWxEb2N1bWVudElEPnhtcC5kaWQ6NThjNzY2MGUtMjExNS0xYTQ1LWIxNGItYmUzNjlmNTc4YWQzPC9zdFJlZjpvcmlnaW5hbERvY3VtZW50SUQ+CiAgICAgICAgIDwveG1wTU06RGVyaXZlZEZyb20+CiAgICAgICAgIDx0aWZmOk9yaWVudGF0aW9uPjE8L3RpZmY6T3JpZW50YXRpb24+CiAgICAgICAgIDx0aWZmOlhSZXNvbHV0aW9uPjMwMDAwMDAvMTAwMDA8L3RpZmY6WFJlc29sdXRpb24+CiAgICAgICAgIDx0aWZmOllSZXNvbHV0aW9uPjMwMDAwMDAvMTAwMDA8L3RpZmY6WVJlc29sdXRpb24+CiAgICAgICAgIDx0aWZmOlJlc29sdXRpb25Vbml0PjI8L3RpZmY6UmVzb2x1dGlvblVuaXQ+CiAgICAgICAgIDxleGlmOkNvbG9yU3BhY2U+MTwvZXhpZjpDb2xvclNwYWNlPgogICAgICAgICA8ZXhpZjpQaXhlbFhEaW1lbnNpb24+NzUyPC9leGlmOlBpeGVsWERpbWVuc2lvbj4KICAgICAgICAgPGV4aWY6UGl4ZWxZRGltZW5zaW9uPjE5ODwvZXhpZjpQaXhlbFlEaW1lbnNpb24+CiAgICAgIDwvcmRmOkRlc2NyaXB0aW9uPgogICA8L3JkZjpSREY+CjwveDp4bXBtZXRhPgogICAgICAgICAgICAgICAgICAgICAgICAgICAgICAgICAgICAgICAgICAgICAgICAgICAgICAgICAgICAgICAgICAgICAgICAgICAgICAgICAgICAgICAgICAgICAgICAgICAgCiAgICAgICAgICAgICAgICAgICAgICAgICAgICAgICAgICAgICAgICAgICAgICAgICAgICAgICAgICAgICAgICAgICAgICAgICAgICAgICAgICAgICAgICAgICAgICAgICAgICAKICAgICAgICAgICAgICAgICAgICAgICAgICAgICAgICAgICAgICAgICAgICAgICAgICAgICAgICAgICAgICAgICAgICAgICAgICAgICAgICAgICAgICAgICAgICAgICAgICAgIAogICAgICAgICAgICAgICAgICAgICAgICAgICAgICAgICAgICAgICAgICAgICAgICAgICAgICAgICAgICAgICAgICAgICAgICAgICAgICAgICAgICAgICAgICAgICAgICAgICAgCiAgICAgICAgICAgICAgICAgICAgICAgICAgICAgICAgICAgICAgICAgICAgICAgICAgICAgICAgICAgICAgICAgICAgICAgICAgICAgICAgICAgICAgICAgICAgICAgICAgICAKICAgICAgICAgICAgICAgICAgICAgICAgICAgICAgICAgICAgICAgICAgICAgICAgICAgICAgICAgICAgICAgICAgICAgICAgICAgICAgICAgICAgICAgICAgICAgICAgICAgIAogICAgICAgICAgICAgICAgICAgICAgICAgICAgICAgICAgICAgICAgICAgICAgICAgICAgICAgICAgICAgICAgICAgICAgICAgICAgICAgICAgICAgICAgICAgICAgICAgICAgCiAgICAgICAgICAgICAgICAgICAgICAgICAgICAgICAgICAgICAgICAgICAgICAgICAgICAgICAgICAgICAgICAgICAgICAgICAgICAgICAgICAgICAgICAgICAgICAgICAgICAKICAgICAgICAgICAgICAgICAgICAgICAgICAgICAgICAgICAgICAgICAgICAgICAgICAgICAgICAgICAgICAgICAgICAgICAgICAgICAgICAgICAgICAgICAgICAgICAgICAgIAogICAgICAgICAgICAgICAgICAgICAgICAgICAgICAgICAgICAgICAgICAgICAgICAgICAgICAgICAgICAgICAgICAgICAgICAgICAgICAgICAgICAgICAgICAgICAgICAgICAgCiAgICAgICAgICAgICAgICAgICAgICAgICAgICAgICAgICAgICAgICAgICAgICAgICAgICAgICAgICAgICAgICAgICAgICAgICAgICAgICAgICAgICAgICAgICAgICAgICAgICAKICAgICAgICAgICAgICAgICAgICAgICAgICAgICAgICAgICAgICAgICAgICAgICAgICAgICAgICAgICAgICAgICAgICAgICAgICAgICAgICAgICAgICAgICAgICAgICAgICAgIAogICAgICAgICAgICAgICAgICAgICAgICAgICAgICAgICAgICAgICAgICAgICAgICAgICAgICAgICAgICAgICAgICAgICAgICAgICAgICAgICAgICAgICAgICAgICAgICAgICAgCiAgICAgICAgICAgICAgICAgICAgICAgICAgICAgICAgICAgICAgICAgICAgICAgICAgICAgICAgICAgICAgICAgICAgICAgICAgICAgICAgICAgICAgICAgICAgICAgICAgICAKICAgICAgICAgICAgICAgICAgICAgICAgICAgICAgICAgICAgICAgICAgICAgICAgICAgICAgICAgICAgICAgICAgICAgICAgICAgICAgICAgICAgICAgICAgICAgICAgICAgIAogICAgICAgICAgICAgICAgICAgICAgICAgICAgICAgICAgICAgICAgICAgICAgICAgICAgICAgICAgICAgICAgICAgICAgICAgICAgICAgICAgICAgICAgICAgICAgICAgICAgCiAgICAgICAgICAgICAgICAgICAgICAgICAgICAgICAgICAgICAgICAgICAgICAgICAgICAgICAgICAgICAgICAgICAgICAgICAgICAgICAgICAgICAgICAgICAgICAgICAgICAKICAgICAgICAgICAgICAgICAgICAgICAgICAgICAgICAgICAgICAgICAgICAgICAgICAgICAgICAgICAgICAgICAgICAgICAgICAgICAgICAgICAgICAgICAgICAgICAgICAgIAogICAgICAgICAgICAgICAgICAgICAgICAgICAgICAgICAgICAgICAgICAgICAgICAgICAgICAgICAgICAgICAgICAgICAgICAgICAgICAgICAgICAgICAgICAgICAgICAgICAgCiAgICAgICAgICAgICAgICAgICAgICAgICAgICAgICAgICAgICAgICAgICAgICAgICAgICAgICAgICAgICAgICAgICAgICAgICAgICAgICAgICAgICAgICAgICAgICAgICAgICAKICAgICAgICAgICAgICAgICAgICAgICAgICAgICAgICAgICAgICAgICAgICAgICAgICAgICAgICAgICAgICAgICAgICAgICAgICAgICAgICAgICAgICAgICAgICAgICAgICAgIAogICAgICAgICAgICAgICAgICAgICAgICAgICAgICAgICAgICAgICAgICAgICAgICAgICAgICAgICAgICAgICAgICAgICAgICAgICAgICAgICAgICAgICAgICAgICAgICAgICAgCiAgICAgICAgICAgICAgICAgICAgICAgICAgICAgICAgICAgICAgICAgICAgICAgICAgICAgICAgICAgICAgICAgICAgICAgICAgICAgICAgICAgICAgICAgICAgICAgICAgICAKICAgICAgICAgICAgICAgICAgICAgICAgICAgICAgICAgICAgICAgICAgICAgICAgICAgICAgICAgICAgICAgICAgICAgICAgICAgICAgICAgICAgICAgICAgICAgICAgICAgIAogICAgICAgICAgICAgICAgICAgICAgICAgICAgICAgICAgICAgICAgICAgICAgICAgICAgICAgICAgICAgICAgICAgICAgICAgICAgICAgICAgICAgICAgICAgICAgICAgICAgCiAgICAgICAgICAgICAgICAgICAgICAgICAgICAgICAgICAgICAgICAgICAgICAgICAgICAgICAgICAgICAgICAgICAgICAgICAgICAgICAgICAgICAgICAgICAgICAgICAgICAKICAgICAgICAgICAgICAgICAgICAgICAgICAgICAgICAgICAgICAgICAgICAgICAgICAgICAgICAgICAgICAgICAgICAgICAgICAgICAgICAgICAgICAgICAgICAgICAgICAgIAogICAgICAgICAgICAgICAgICAgICAgICAgICAgICAgICAgICAgICAgICAgICAgICAgICAgICAgICAgICAgICAgICAgICAgICAgICAgICAgICAgICAgICAgICAgICAgICAgICAgCiAgICAgICAgICAgICAgICAgICAgICAgICAgICAgICAgICAgICAgICAgICAgICAgICAgICAgICAgICAgICAgICAgICAgICAgICAgICAgICAgICAgICAgICAgICAgICAgICAgICAKICAgICAgICAgICAgICAgICAgICAgICAgICAgICAgICAgICAgICAgICAgICAgICAgICAgICAgICAgICAgICAgICAgICAgICAgICAgICAgICAgICAgICAgICAgICAgICAgICAgIAogICAgICAgICAgICAgICAgICAgICAgICAgICAgICAgICAgICAgICAgICAgICAgICAgICAgICAgICAgICAgICAgICAgICAgICAgICAgICAgICAgICAgICAgICAgICAgICAgICAgCiAgICAgICAgICAgICAgICAgICAgICAgICAgICAgICAgICAgICAgICAgICAgICAgICAgICAgICAgICAgICAgICAgICAgICAgICAgICAgICAgICAgICAgICAgICAgICAgICAgICAKICAgICAgICAgICAgICAgICAgICAgICAgICAgICAgICAgICAgICAgICAgICAgICAgICAgICAgICAgICAgICAgICAgICAgICAgICAgICAgICAgICAgICAgICAgICAgICAgICAgIAogICAgICAgICAgICAgICAgICAgICAgICAgICAgICAgICAgICAgICAgICAgICAgICAgICAgICAgICAgICAgICAgICAgICAgICAgICAgICAgICAgICAgICAgICAgICAgICAgICAgCiAgICAgICAgICAgICAgICAgICAgICAgICAgICAgICAgICAgICAgICAgICAgICAgICAgICAgICAgICAgICAgICAgICAgICAgICAgICAgICAgICAgICAgICAgICAgICAgICAgICAKICAgICAgICAgICAgICAgICAgICAgICAgICAgICAgICAgICAgICAgICAgICAgICAgICAgICAgICAgICAgICAgICAgICAgICAgICAgICAgICAgICAgICAgICAgICAgICAgICAgIAogICAgICAgICAgICAgICAgICAgICAgICAgICAgICAgICAgICAgICAgICAgICAgICAgICAgICAgICAgICAgICAgICAgICAgICAgICAgICAgICAgICAgICAgICAgICAgICAgICAgCiAgICAgICAgICAgICAgICAgICAgICAgICAgICAgICAgICAgICAgICAgICAgICAgICAgICAgICAgICAgICAgICAgICAgICAgICAgICAgICAgICAgICAgICAgICAgICAgICAgICAKICAgICAgICAgICAgICAgICAgICAgICAgICAgICAgICAgICAgICAgICAgICAgICAgICAgICAgICAgICAgICAgICAgICAgICAgICAgICAgICAgICAgICAgICAgICAgICAgICAgIAogICAgICAgICAgICAgICAgICAgICAgICAgICAgICAgICAgICAgICAgICAgICAgICAgICAgICAgICAgICAgICAgICAgICAgICAgICAgICAgICAgICAgICAgICAgICAgICAgICAgCiAgICAgICAgICAgICAgICAgICAgICAgICAgICAgICAgICAgICAgICAgICAgICAgICAgICAgICAgICAgICAgICAgICAgICAgICAgICAgICAgICAgICAgICAgICAgICAgICAgICAKICAgICAgICAgICAgICAgICAgICAgICAgICAgICAgICAgICAgICAgICAgICAgICAgICAgICAgICAgICAgICAgICAgICAgICAgICAgICAgICAgICAgICAgICAgICAgICAgICAgIAogICAgICAgICAgICAgICAgICAgICAgICAgICAgICAgICAgICAgICAgICAgICAgICAgICAgICAgICAgICAgICAgICAgICAgICAgICAgICAgICAgICAgICAgICAgICAgICAgICAgCiAgICAgICAgICAgICAgICAgICAgICAgICAgICAgICAgICAgICAgICAgICAgICAgICAgICAgICAgICAgICAgICAgICAgICAgICAgICAgICAgICAgICAgICAgICAgICAgICAgICAKICAgICAgICAgICAgICAgICAgICAgICAgICAgICAgICAgICAgICAgICAgICAgICAgICAgICAgICAgICAgICAgICAgICAgICAgICAgICAgICAgICAgICAgICAgICAgICAgICAgIAogICAgICAgICAgICAgICAgICAgICAgICAgICAgICAgICAgICAgICAgICAgICAgICAgICAgICAgICAgICAgICAgICAgICAgICAgICAgICAgICAgICAgICAgICAgICAgICAgICAgCiAgICAgICAgICAgICAgICAgICAgICAgICAgICAgICAgICAgICAgICAgICAgICAgICAgICAgICAgICAgICAgICAgICAgICAgICAgICAgICAgICAgICAgICAgICAgICAgICAgICAKICAgICAgICAgICAgICAgICAgICAgICAgICAgICAgICAgICAgICAgICAgICAgICAgICAgICAgICAgICAgICAgICAgICAgICAgICAgICAgICAgICAgICAgICAgICAgICAgICAgIAogICAgICAgICAgICAgICAgICAgICAgICAgICAgICAgICAgICAgICAgICAgICAgICAgICAgICAgICAgICAgICAgICAgICAgICAgICAgICAgICAgICAgICAgICAgICAgICAgICAgCiAgICAgICAgICAgICAgICAgICAgICAgICAgICAgICAgICAgICAgICAgICAgICAgICAgICAgICAgICAgICAgICAgICAgICAgICAgICAgICAgICAgICAgICAgICAgICAgICAgICAKICAgICAgICAgICAgICAgICAgICAgICAgICAgICAgICAgICAgICAgICAgICAgICAgICAgICAgICAgICAgICAgICAgICAgICAgICAgICAgICAgICAgICAgICAgICAgICAgICAgIAogICAgICAgICAgICAgICAgICAgICAgICAgICAgICAgICAgICAgICAgICAgICAgICAgICAgICAgICAgICAgICAgICAgICAgICAgICAgICAgICAgICAgICAgICAgICAgICAgICAgCiAgICAgICAgICAgICAgICAgICAgICAgICAgICAgICAgICAgICAgICAgICAgICAgICAgICAgICAgICAgICAgICAgICAgICAgICAgICAgICAgICAgICAgICAgICAgICAgICAgICAKICAgICAgICAgICAgICAgICAgICAgICAgICAgICAgICAgICAgICAgICAgICAgICAgICAgICAgICAgICAgICAgICAgICAgICAgICAgICAgICAgICAgICAgICAgICAgICAgICAgIAogICAgICAgICAgICAgICAgICAgICAgICAgICAgICAgICAgICAgICAgICAgICAgICAgICAgICAgICAgICAgICAgICAgICAgICAgICAgICAgICAgICAgICAgICAgICAgICAgICAgCiAgICAgICAgICAgICAgICAgICAgICAgICAgICAgICAgICAgICAgICAgICAgICAgICAgICAgICAgICAgICAgICAgICAgICAgICAgICAgICAgICAgICAgICAgICAgICAgICAgICAKICAgICAgICAgICAgICAgICAgICAgICAgICAgICAgICAgICAgICAgICAgICAgICAgICAgICAgICAgICAgICAgICAgICAgICAgICAgICAgICAgICAgICAgICAgICAgICAgICAgIAogICAgICAgICAgICAgICAgICAgICAgICAgICAgICAgICAgICAgICAgICAgICAgICAgICAgICAgICAgICAgICAgICAgICAgICAgICAgICAgICAgICAgICAgICAgICAgICAgICAgCiAgICAgICAgICAgICAgICAgICAgICAgICAgICAgICAgICAgICAgICAgICAgICAgICAgICAgICAgICAgICAgICAgICAgICAgICAgICAgICAgICAgICAgICAgICAgICAgICAgICAKICAgICAgICAgICAgICAgICAgICAgICAgICAgICAgICAgICAgICAgICAgICAgICAgICAgICAgICAgICAgICAgICAgICAgICAgICAgICAgICAgICAgICAgICAgICAgICAgICAgIAogICAgICAgICAgICAgICAgICAgICAgICAgICAgICAgICAgICAgICAgICAgICAgICAgICAgICAgICAgICAgICAgICAgICAgICAgICAgICAgICAgICAgICAgICAgICAgICAgICAgCiAgICAgICAgICAgICAgICAgICAgICAgICAgICAgICAgICAgICAgICAgICAgICAgICAgICAgICAgICAgICAgICAgICAgICAgICAgICAgICAgICAgICAgICAgICAgICAgICAgICAKICAgICAgICAgICAgICAgICAgICAgICAgICAgICAgICAgICAgICAgICAgICAgICAgICAgICAgICAgICAgICAgICAgICAgICAgICAgICAgICAgICAgICAgICAgICAgICAgICAgIAogICAgICAgICAgICAgICAgICAgICAgICAgICAgICAgICAgICAgICAgICAgICAgICAgICAgICAgICAgICAgICAgICAgICAgICAgICAgICAgICAgICAgICAgICAgICAgICAgICAgCiAgICAgICAgICAgICAgICAgICAgICAgICAgICAgICAgICAgICAgICAgICAgICAgICAgICAgICAgICAgICAgICAgICAgICAgICAgICAgICAgICAgICAgICAgICAgICAgICAgICAKICAgICAgICAgICAgICAgICAgICAgICAgICAgICAgICAgICAgICAgICAgICAgICAgICAgICAgICAgICAgICAgICAgICAgICAgICAgICAgICAgICAgICAgICAgICAgICAgICAgIAogICAgICAgICAgICAgICAgICAgICAgICAgICAgICAgICAgICAgICAgICAgICAgICAgICAgICAgICAgICAgICAgICAgICAgICAgICAgICAgICAgICAgICAgICAgICAgICAgICAgCiAgICAgICAgICAgICAgICAgICAgICAgICAgICAgICAgICAgICAgICAgICAgICAgICAgICAgICAgICAgICAgICAgICAgICAgICAgICAgICAgICAgICAgICAgICAgICAgICAgICAKICAgICAgICAgICAgICAgICAgICAgICAgICAgICAgICAgICAgICAgICAgICAgICAgICAgICAgICAgICAgICAgICAgICAgICAgICAgICAgICAgICAgICAgICAgICAgICAgICAgIAogICAgICAgICAgICAgICAgICAgICAgICAgICAgICAgICAgICAgICAgICAgICAgICAgICAgICAgICAgICAgICAgICAgICAgICAgICAgICAgICAgICAgICAgICAgICAgICAgICAgCiAgICAgICAgICAgICAgICAgICAgICAgICAgICAgICAgICAgICAgICAgICAgICAgICAgICAgICAgICAgICAgICAgICAgICAgICAgICAgICAgICAgICAgICAgICAgICAgICAgICAKICAgICAgICAgICAgICAgICAgICAgICAgICAgICAgICAgICAgICAgICAgICAgICAgICAgICAgICAgICAgICAgICAgICAgICAgICAgICAgICAgICAgICAgICAgICAgICAgICAgIAogICAgICAgICAgICAgICAgICAgICAgICAgICAgICAgICAgICAgICAgICAgICAgICAgICAgICAgICAgICAgICAgICAgICAgICAgICAgICAgICAgICAgICAgICAgICAgICAgICAgCiAgICAgICAgICAgICAgICAgICAgICAgICAgICAgICAgICAgICAgICAgICAgICAgICAgICAgICAgICAgICAgICAgICAgICAgICAgICAgICAgICAgICAgICAgICAgICAgICAgICAKICAgICAgICAgICAgICAgICAgICAgICAgICAgICAgICAgICAgICAgICAgICAgICAgICAgICAgICAgICAgICAgICAgICAgICAgICAgICAgICAgICAgICAgICAgICAgICAgICAgIAogICAgICAgICAgICAgICAgICAgICAgICAgICAgICAgICAgICAgICAgICAgICAgICAgICAgICAgICAgICAgICAgICAgICAgICAgICAgICAgICAgICAgICAgICAgICAgICAgICAgCiAgICAgICAgICAgICAgICAgICAgICAgICAgICAgICAgICAgICAgICAgICAgICAgICAgICAgICAgICAgICAgICAgICAgICAgICAgICAgICAgICAgICAgICAgICAgICAgICAgICAKICAgICAgICAgICAgICAgICAgICAgICAgICAgICAgICAgICAgICAgICAgICAgICAgICAgICAgICAgICAgICAgICAgICAgICAgICAgICAgICAgICAgICAgICAgICAgICAgICAgIAogICAgICAgICAgICAgICAgICAgICAgICAgICAgICAgICAgICAgICAgICAgICAgICAgICAgICAgICAgICAgICAgICAgICAgICAgICAgICAgICAgICAgICAgICAgICAgICAgICAgCiAgICAgICAgICAgICAgICAgICAgICAgICAgICAgICAgICAgICAgICAgICAgICAgICAgICAgICAgICAgICAgICAgICAgICAgICAgICAgICAgICAgICAgICAgICAgICAgICAgICAKICAgICAgICAgICAgICAgICAgICAgICAgICAgICAgICAgICAgICAgICAgICAgICAgICAgICAgICAgICAgICAgICAgICAgICAgICAgICAgICAgICAgICAgICAgICAgICAgICAgIAogICAgICAgICAgICAgICAgICAgICAgICAgICAgICAgICAgICAgICAgICAgICAgICAgICAgICAgICAgICAgICAgICAgICAgICAgICAgICAgICAgICAgICAgICAgICAgICAgICAgCiAgICAgICAgICAgICAgICAgICAgICAgICAgICAgICAgICAgICAgICAgICAgICAgICAgICAgICAgICAgICAgICAgICAgICAgICAgICAgICAgICAgICAgICAgICAgICAgICAgICAKICAgICAgICAgICAgICAgICAgICAgICAgICAgICAgICAgICAgICAgICAgICAgICAgICAgICAgICAgICAgICAgICAgICAgICAgICAgICAgICAgICAgICAgICAgICAgICAgICAgIAogICAgICAgICAgICAgICAgICAgICAgICAgICAgICAgICAgICAgICAgICAgICAgICAgICAgICAgICAgICAgICAgICAgICAgICAgICAgICAgICAgICAgICAgICAgICAgICAgICAgCiAgICAgICAgICAgICAgICAgICAgICAgICAgICAgICAgICAgICAgICAgICAgICAgICAgICAgICAgICAgICAgICAgICAgICAgICAgICAgICAgICAgICAgICAgICAgICAgICAgICAKICAgICAgICAgICAgICAgICAgICAgICAgICAgICAgICAgICAgICAgICAgICAgICAgICAgICAgICAgICAgICAgICAgICAgICAgICAgICAgICAgICAgICAgICAgICAgICAgICAgIAogICAgICAgICAgICAgICAgICAgICAgICAgICAgICAgICAgICAgICAgICAgICAgICAgICAgICAgICAgICAgICAgICAgICAgICAgICAgICAgICAgICAgICAgICAgICAgICAgICAgCiAgICAgICAgICAgICAgICAgICAgICAgICAgICAgICAgICAgICAgICAgICAgICAgICAgICAgICAgICAgICAgICAgICAgICAgICAgICAgICAgICAgICAgICAgICAgICAgICAgICAKICAgICAgICAgICAgICAgICAgICAgICAgICAgICAgICAgICAgICAgICAgICAgICAgICAgICAgICAgICAgICAgICAgICAgICAgICAgICAgICAgICAgICAgICAgICAgICAgICAgIAogICAgICAgICAgICAgICAgICAgICAgICAgICAgICAgICAgICAgICAgICAgICAgICAgICAgICAgICAgICAgICAgICAgICAgICAgICAgICAgICAgICAgICAgICAgICAgICAgICAgCiAgICAgICAgICAgICAgICAgICAgICAgICAgICAgICAgICAgICAgICAgICAgICAgICAgICAgICAgICAgICAgICAgICAgICAgICAgICAgICAgICAgICAgICAgICAgICAgICAgICAKICAgICAgICAgICAgICAgICAgICAgICAgICAgICAgICAgICAgICAgICAgICAgICAgICAgICAgICAgICAgICAgICAgICAgICAgICAgICAgICAgICAgICAgICAgICAgICAgICAgIAogICAgICAgICAgICAgICAgICAgICAgICAgICAgICAgICAgICAgICAgICAgICAgICAgICAgICAgICAgICAgICAgICAgICAgICAgICAgICAgICAgICAgICAgICAgICAgICAgICAgCiAgICAgICAgICAgICAgICAgICAgICAgICAgICAgICAgICAgICAgICAgICAgICAgICAgICAgICAgICAgICAgICAgICAgICAgICAgICAgICAgICAgICAgICAgICAgICAgICAgICAKICAgICAgICAgICAgICAgICAgICAgICAgICAgICAgICAgICAgICAgICAgICAgICAgICAgICAgICAgICAgICAgICAgICAgICAgICAgICAgICAgICAgICAgICAgICAgICAgICAgIAogICAgICAgICAgICAgICAgICAgICAgICAgICAgICAgICAgICAgICAgICAgICAgICAgICAgICAgICAgICAgICAgICAgICAgICAgICAgICAgICAgICAgICAgICAgICAgICAgICAgCiAgICAgICAgICAgICAgICAgICAgICAgICAgICAgICAgICAgICAgICAgICAgICAgICAgICAgICAgICAgICAgICAgICAgICAgICAgICAgICAgICAgICAgICAgICAgICAgICAgICAKICAgICAgICAgICAgICAgICAgICAgICAgICAgICAgICAgICAgICAgICAgICAgICAgICAgICAgICAgICAgICAgICAgICAgICAgICAgICAgICAgICAgICAgICAgICAgICAgICAgIAogICAgICAgICAgICAgICAgICAgICAgICAgICAgICAgICAgICAgICAgICAgICAgICAgICAgICAgICAgICAgICAgICAgICAgICAgICAgICAgICAgICAgICAgICAgICAgICAgICAgCiAgICAgICAgICAgICAgICAgICAgICAgICAgICAgICAgICAgICAgICAgICAgICAgICAgICAgICAgICAgICAgICAgICAgICAgICAgICAgICAgICAgICAgICAgICAgICAgICAgICAKICAgICAgICAgICAgICAgICAgICAgICAgICAgICAgICAgICAgICAgICAgICAgICAgICAgICAgICAgICAgICAgICAgICAgICAgICAgICAgICAgICAgICAgICAgICAgICAgICAgIAogICAgICAgICAgICAgICAgICAgICAgICAgICAgICAgICAgICAgICAgICAgICAgICAgICAgICAgICAgICAgICAgICAgICAgICAgICAgICAgICAgICAgICAgICAgICAgICAgICAgCiAgICAgICAgICAgICAgICAgICAgICAgICAgICAgICAgICAgICAgICAgICAgICAgICAgICAgICAgICAgICAgICAgICAgICAgICAgICAgICAgICAgICAgICAgICAgICAgICAgICAKICAgICAgICAgICAgICAgICAgICAgICAgICAgICAgICAgICAgICAgICAgICAgICAgICAgICAgICAgICAgICAgICAgICAgICAgICAgICAgICAgICAgICAgICAgICAgICAgICAgIAogICAgICAgICAgICAgICAgICAgICAgICAgICAgICAgICAgICAgICAgICAgICAgICAgICAgICAgICAgICAgICAgICAgICAgICAgICAgICAgICAgICAgICAgICAgICAgICAgICAgCiAgICAgICAgICAgICAgICAgICAgICAgICAgICAgICAgICAgICAgICAgICAgICAgICAgICAgICAgICAgICAgICAgICAgICAgICAgICAgICAgICAgICAgICAgICAgICAgICAgICAKICAgICAgICAgICAgICAgICAgICAgICAgICAgICAgICAgICAgICAgICAgICAgICAgICAgICAgICAgICAgICAgICAgICAgICAgICAgICAgICAgICAgICAgICAgICAgICAgICAgIAogICAgICAgICAgICAgICAgICAgICAgICAgICAgICAgICAgICAgICAgICAgICAgICAgICAgICAgICAgICAgICAgICAgICAgICAgICAgICAgICAgICAgICAgICAgICAgICAgICAgCiAgICAgICAgICAgICAgICAgICAgICAgICAgICAgICAgICAgICAgICAgICAgICAgICAgICAgICAgICAgICAgICAgICAgICAgICAgICAgICAgICAgICAgICAgICAgICAgICAgICAKICAgICAgICAgICAgICAgICAgICAgICAgICAgICAgICAgICAgICAgICAgICAgICAgICAgICAgICAgICAgICAgICAgICAgICAgICAgICAgICAgICAgICAgICAgICAgICAgICAgIAogICAgICAgICAgICAgICAgICAgICAgICAgICAgICAgICAgICAgICAgICAgICAgICAgICAgICAgICAgICAgICAgICAgICAgICAgICAgICAgICAgICAgICAgICAgICAgICAgICAgCiAgICAgICAgICAgICAgICAgICAgICAgICAgICAgICAgICAgICAgICAgICAgICAgICAgICAgICAgICAgICAgICAgICAgICAgICAgICAgICAgICAgICAgICAgICAgICAgICAgICAKICAgICAgICAgICAgICAgICAgICAgICAgICAgICAgICAgICAgICAgICAgICAgICAgICAgICAgICAgICAgICAgICAgICAgICAgICAgICAgICAgICAgICAgICAgICAgICAgICAgIAogICAgICAgICAgICAgICAgICAgICAgICAgICAgICAgICAgICAgICAgICAgICAgICAgICAgICAgICAgICAgICAgICAgICAgICAgICAgICAgICAgICAgICAgICAgICAgICAgICAgCiAgICAgICAgICAgICAgICAgICAgICAgICAgICAgICAgICAgICAgICAgICAgICAgICAgICAgICAgICAgICAgICAgICAgICAgICAgICAgICAgICAgICAgICAgICAgICAgICAgICAKICAgICAgICAgICAgICAgICAgICAgICAgICAgICAgICAgICAgICAgICAgICAgICAgICAgICAgICAgICAgICAgICAgICAgICAgICAgICAgICAgICAgICAgICAgICAgICAgICAgIAogICAgICAgICAgICAgICAgICAgICAgICAgICAgICAgICAgICAgICAgICAgICAgICAgICAgICAgICAgICAgICAgICAgICAgICAgICAgICAgICAgICAgICAgICAgICAgICAgICAgCiAgICAgICAgICAgICAgICAgICAgICAgICAgICAgICAgICAgICAgICAgICAgICAgICAgICAgICAgICAgICAgICAgICAgICAgICAgICAgICAgICAgICAgICAgICAgICAgICAgICAKICAgICAgICAgICAgICAgICAgICAgICAgICAgIAo8P3hwYWNrZXQgZW5kPSJ3Ij8+EbcAKQAAACBjSFJNAAB6JQAAgIMAAPn/AACA6QAAdTAAAOpgAAA6mAAAF2+SX8VGAAAzdklEQVR42uydd5gdZdmH780mmx5SII00WhJKQkIwoUpvAhqaqHxUBWyAH4iigmJBECkiSBFEQFSqBlBAkA7BgIJ0Qof03vvunu+P5zlflmWT7MyZdmZ+93WdC01y5sy887wzv/d5n1JTKpUQQgghhBBCVAdtNARCCCGEEEJIwAshhBBCCCEk4IUQQgghhJCAF0IIIYQQQkjACyGEEEIIISTghRBCCCGEkIAXQgghhBBCSMALIYQQQgghJOCFEEIIIYSQgBdCCCGEEEJIwAshhBBCCCEk4IUQQgghhJCAF0IIIYQQQkjACyGEEEIIISTghRBCCCGEkIAXQgghhBBCSMALIYQQQgghJOCFEEIIIYSQgBdCCCGEEEJIwAshhBBCCCEk4IUQQgghhJCAF0IIIYQQQkjACyGEEEIIISTghRBCCCGEkIAXQgghhBBCSMALIYQQQgghJOCFEEIIIYSQgBdCCCGEEEJkjLZJ/2DNHYdp1IXIO0dPqPQIE4DPxXR2PwbOL8Bd0Bi2klKppDkrhKgq5IEXQkTP7eM1BkIIIYQEvBBCCCGEEEICXggRD/LCCyGEEBLwQgghhBBCSMALIURcyAsvhBBCSMALIYQQQgghAS+EEHEhL7wQQgghAS+EEEIIIYQEvBAib3wAlGL67KnhFUIIISTghRBCCCGEEBugrYZACCFEkampqcnju707sCnQG9gY2AjoCnQA6oBaoB5YBSwHFgMLgDnALGCa/3lJFpJrDdgDGABs4nbS3e2kvdtJG2B1EztZAswH5gEzgOnACtkJlEqlxG+eEEIIIaqXvsAIYGtgW2AY0AfoAnTyd31Ns8//644mn0YXastc0H8IvA68AbwGvOJiTlQn/YCRbifbAEPdTrq6ndS6bZSjM1prJx+4nbzudvIqsEbDLQEvhBBCiI+/u3fEclHGuWDvgXlNO/h/owiR3QbYG1iJeV9nAi8BTwHPAO/pVmTeTj7VxE62AnrGaCergKWYZ/4V4ElgIvC+boUEvBBCCFFE2gA7AQcCY4HNWBsaUxvTb7bzTxf//4MwD+7BWKjNq8DjwIPAVN2iTNnJAcDObic9E7KTrm6TQ4BRbidzm9jJQ8BHukUS8EIIIUTe2dSF0H7AcGCwC6W06AD0989IYC/gROA54BHgYcwTK5JlAPCZJnYyCOiW4vl0dNvdtImdnAQ8D/zTxbzsRAJeCCGEyBWjXJDthcW198vgOdY0EfPjsN2BF4H7gb8BC3UbY2e0j/veVWQnBwBfcDu5D4ujFxLwQgghRNUyAjgEOMjFTl2VnHct5vkdDuyO7RrcB/wdWKTbGjnb+wKv2uykDZazMczt5CC3kwck5CXghRBZ4/bxcPQEjYMQ62aQi97DgX2r/FoGYB7WPYE9gLuBx1BlkigY7ML9SMzrXs0MBI7BdpnKdvKk7EQCXgghES9E1ukE7AYcBxxF9XhSW0Nf4BQXaL8D7sVKUopwdvJp4Fi3k3Y5urb+wNeAfYAbZSetQ51YhRDJinghRJnNgW8AN2CeyLqcXudWwEXAr4BDsYooIridXA98KWfivSlD3U4ux8LIuunWS8ALISTihcgK7bFSf5cBF2OhBEVgf+BWF6Obygw2SAesFGTZTgYU5LoPAG4Bvi47kYAXQkjEC5EFugFHALcBnyvo9V8AXIlVTUnCmzyBj3cSjeIzPoFxOqrAdtIDuNDtZDvyu+sgAS+EkIgXIsPUYKEj52Be6MEx/14jUI/V2l6Btb1fglX6aPpZgnXPXIZ1XF3t3yvFfH6HAX/F4p47yDw+ZifdgO9h8eCDZCf8BUvY7SjzWIuSWIUQ6Yp4JbaKYtAP+DVWZaYmpt8oe4cXAh8C04G3sVb2s7HuqUuABv93NS6KugGb+KJiiH8G+v9v20RYRs1WwB3AWb6oWSEzoTfwG8zr3jZGO2l0O/kImAG81cROZrudlJoI9OZ2Mhjr8jrQFxntYraTu4FvAX/2RYQEvIZACCERL0SsDAOuA3aNSeA0YA2UHgP+BbwDfICV42v0T6mZIGtKjX/a+KcG2NiF2baYl3wn4vEGd8XCJPoBlwDLC24nN2B13ePQZ/XAC24nk5rYSX0FdtLL7WIE5iXfmXhyOjoDV/kC5wqJeAl4IYQQIk5GunjfMYZ37otYGMqjmKd9BRYKURZklTAF8+C/ANyFxSSPxqrIHOzCLSraA2djpRJ/WlBxNsrF+yisKVaU/Mft5PFmdrKGykNgpmIe/BeBO91OxridfAboGbGdnON28gtsl0ACXrRq9VfeIiobvxAiCuSFF/lkNHCti/eocs5WYjHBdwP/BeYSXwfLBn/frQDmu6h/EisHuQ/WrGlMRL/VBasF3gb4GcXqyrkDVid/e6LboVnpC6+7gZeAeQnbyRNY9Zz9sGTcHSP6ra7AN12//pwCd2+VgP84tcBYYBefUEOxOK+ezVbE/+sPsCTp4RNgBLC1n9dAP7deLazYlwELsJjHqVg85GTgFV8pq2XxhimX8NoNy4LfEms4sUmz8V7kD8uPsO3Id4HngWfdMyGEKN7cGoVt9Y+N6HgLgdtdvL+OeccbE76m1ayNkX4beBALCzoG2D2C43fDGj+tweqBF8HDOhq42u0lKju5w8V72U5KKdjJLP+8Ddzvc/2LWDOqStkIONV/52IsuVYCvqDs6MbwOX+BZIF2WGvhQ7C22tsEXJl39s8Af0A0peRC/nHgb75SXi0z+P858Vl/IX2G1lVH2Mg/fYBPNfu7d9wDcie2jSnWhbzwmlv5mVtbY6USoxC1a7Dwhz/4dWZl4bIUeBV4E4un3hdrMjQ6AnH2VRfvV5DvxNZtsFCQcRHZyQSsfvoLLtyzZifPYh75KOykO1YnfjHmUK0v2gM1jTKSE4i+Hmv5c37Ac9kJ2w58HvhKRsT79r4anw48DJyBJRFFmfhUg8Vlng485N6U6yJ6iFSrPXTBKiF86KLgcKIpbbYl8F3g3/5Q/VIEC+ebWnn9cZapeyzC+/StnD5fN8N2v0oJfe4lm508q2luRcFArATgQREc6zms6dE57mxJS7z39Ovq2sLf1WOhPJf7uV6F7f5W+ntn+D3NK4OB81zQVsokF7NlO0lLvPfagJ281MROrsTCbSr9vf8F/qeoHpEi0sVXbF/OyPnUuEfqHGybKWk2wrYtT8EqGPwCuIfkt93SGvvjse3aPjH/1mjgj8CPgdOw7WeRT/r4AjypLoIPAkeSrZ20Is6tblh87lEVOl2WYuEyNwFPp3gP9/R30jBsR3eRi7AnfdHUlAbMw/q6C8qvYuE1YenrC7RpOXxW9nA7ObLC4yzFwmVuBJ5J2U52dzvphIXxlO3kxfXYyb+x6IddKvjt/r5gno45JCXgc8xwF6dDM3I++2IxXKMzcj47Ydu1/8GqAjyWY1sYAvzeHz5JsiXwAOaN/CqWhCbyw0Yu3rdI6Pcewzp7rtbcSn1uHQucRGU7DO9jia/XU7knOyxdsF3pE7Hd2qY0+qLiLrfzN5v9/SKspvvb2C7vYYRvwLMV8ANs9+aNnDwfarAwshMr1GDvAddglWsWpnQtXd1OTliHnTyFhbj9E8vBa24nt7idnIZ1tg1rJ0OBc7FcmTeL8qIpWifW3YGJGRHvmwN/9wfg6AyO1RisNNmdJOdFTJLD3DOwZ4rncIR7KcYi8kInLGFrREK/9wSWJ7Nccyv1ubUHcCZWPz0s/8a8iRenKN7rfPFzWQuirKwbPo01pfol5kVuKfx0EhYedxUWphmW3YDvVziuWWJvH5dKynBOwnYnLklRvNdiYTuXrsdO9vD7X7aTlu7hsz4eV2NFN8Kyq9tJDwn4/LE38I8M3Nw2/pB/DQubyTpH+rkenyPvxw+xSg7dM3A+/bFk4kOlfaueOszzu0tCv/cclni/XHMr9bnVx69985Dfr8d2Us7AQmfSfD+NwvKHWhMCdAiWXPsdLHyi+XfmYKGhF1NZXPah2M5GtWuWfi4yt6jATv7pGuKulO1kDLY7UtPK+3er28LwFr4z2//ulxXYSRssSf4ECfh8sSOW2NEx5fPoj3m1LyWaJK6k2AiLxbwV21qtVmqxrekfZ+y8Orrw+6w0cFXb1i3AgQmK9/2xbWjNrXTnVjvg24QvArAaeMTF+8SUx6sLlhDYOcB3Ovj13wwc0MI7otHfeecSPgm3XJmmmncry82qdqnATh7CvNVp20kdlkPYKeD1n+Va4oAWbKzeBfx5WPnJsHZyOtmMapCAD8EQLFQlbfH+aSzpZ48qHstjsESZwVV47jVYrOApGT2/dsBtpFMJSFTOb4CjE/qtV7FOmIs0tzIxt8r1rTuH+G7Z8346Vto3CyJzR8IVMBiHeYWPoeXum7/HPPVhK49shu1ydKzSZ8ReWGhXh5B28rCL99cycC11WK8cQtrJnVi+SEsRETf6QmdhyOMPxBqBdSDn5F3At8e8L71TPo/jsW2vPjkY05GY929ElZ33ZWR/a60jlkDcG1FNXIBVUkhKvO9NthKfizy36jDPcr8Q3230Z+nZwFsZGadagnlVm9MZ24k52993zUMl/oSFf4St7T4OC6WpqbJnRHmXYlBIO3kGCzF5O0PX06GC+9AFS8A9y+dk8+Pc7nayKqQN74btJFWbnUjAN+HSClaJUVHeMmqXo3HtjVUhqBZv8XlUT63xflhLbVEdnIXFtCbBu1jN6DmaW5mZWyf5OybMu3QyFjbzaobGqJ5oup9+Bwun6tOCGL0Li50OQ0/ga1SfM+wUwndafdXF/2sZup6VWLf3SktNfw/4UQsL69UV2kk3rD587zyL+DwL+L2wZgFpcg6WJZ5HumG1ebPuiT8c+EmVje0hJBeOISoTb0nN73exqi4zNbcyMbdqsIoa38DiboOywkXZi2Sr38YqrIRwpaKnDbYrc34LYnsZ5om/MuSxh2A11KuFTbBSiz1DfHeZi9is2ckaP6eGCOzky1hoVPNKRkuwBOlrQh57cyxvIrfl0vMq4DtgMZlpcjpwYc4FTHessk9Wy0yOxBILq5ErqO6E4bxzOFanOwmmuXifqrmVmblV6wu4LUKK3e9gJUAbMjY2y7FiBVFUNmqPxTl/h09WJZqNNVN8NMRxOwHHBRz7Y7B46yg/f2/lb5+Kxe+HtZNHM2gnq7DdrPqI7OQErCxm1xbs5EKsIVQYHXgK4cKWJOBT5EzCl/OKgsOwdsFFoB9wH9lMGDmMcIllWaAP1eVlKhL7YEmRSTw/syjeNbesS+hXCZdQ+Ue3n2UZHJsGLJn2hxEdrxPmYT21mYAtYY2IziV4PkeNv3dODTAHl2FJkVF+1rTiPPu7OA0zV27GcviWZ9BOGoH/YmFSpYjs5CtYXfnmTMGiGcKEDvbHGmZVa+Jz4QT8xiQXk9oSI92DUaQa+6OxZg0iWr6NvPBZYxwwgWRyWma7eH9Hw56pudUeOArzqgblXSysJMvdl1dhu0unRWR7G2HxyC31Enke+GmIY9ZiXvjBZDfGuQ2WSDkoxDm+g3meZ2XYTuqB67A8jqjs5ExaToj/F/Bzwu1EfBkYIAFfHZxNep6hblgTk04Ujy9jTZ9EdPTCytOJbLAt1k8iiUXVXGBfifdMzq2NCVcycxWWM1AN93Qx8FvMe3k5lSdO93FxtksLIvAmrEpbY4Dj1fgxP+8Lqiyyib8Xg8ZgN2Ce7clVYCeLfLF3IhYSVenCtLcvCHZu9uclrLzkYyFEfF+s4V217hgWRsB3J93E1asJ32EtD1yHSiBGzYkagkwwBMv3SKKd+3ysVOQrGvbMza32WE+P4QG/V+6geVsVjc9qrNrYT7DKL3+r8HgjME98/xYWCz8hnLf5eD6Z/JgF6nwODyWY970RKw5xZxXZycomdvJ14P4KjzfSF3u9W7CTCwiXyH88+SjjnWsBf2yKq6wjsESZItMTqwktomNnfwmI9Ojt4iuJZO3FwGck3jM7t3r5eyYoM4CLXBRXGwuxWOxvY50yKwnrOBA4uYU/fwq4J8T4DMfC2uoyNmYb0XLI0IaYiYWKrKpCO1ngC48zsepcsyvQpQdiOSbNeRxLHg46PtthDcryVM47dwK+Z0q/2x3rxChsEbObhiFSDtYQpPoifphkdtYWA/sDkzTsmZ1bmxO8m/ZqrJLI01U+VpOxpNOfEb7xVBdfALXUQ+RKLLE1KJ8ne7lCg7GdmqB28iAwMSd2ckGFdnIill/XnKsJF4b2WZLZQU2M3NbHTJjzSXZ7pt5Xok8AL/hDbzZrYwh7+ANkW2B34CAsPj8pLgV2Ilt1a6uZ/SlOVaMs0Qnz9oxM4LdWAOMl3jM9t7q6KAua4/QBFk+eB1ZjBQumYTsKYXYHB2MN0I7n4x1ZX3cBO5hgVUP2xbyrr/k7J82k1hIWBXAIwSuzTSF8zfOssQr4tdvJhcBWIY6xKVZ95jg+7nF/yRfEWwQc4/2wxPMZEvCizHCSK/c30182vwPmreffLQTed5H/Gyxu83Cszur2CZznWOBQ4F6ZRyTs4XO1XkORGHVYJ8BdExLvh2AJWiK7c6s/Ft4UhDW+KJuYs3H7q4uqq11wB9Ude/vi6Z5mf3eL//k2AY7XA+vo+d56BHxPXyBH+S5uKda7AXOW7RLCTiYC/86ZndyNxchfAwwM+N12bgt7Aw80+7s/Yc06twtwvN6YR/+5vLxLJeAr53yspFXcq/rL/bfCtLleBfwZuB2LP7yE+Lccv18lAn6Kv0QmYlt/U1kbh9kZS14c6Q+Lz5BOjkVHXyiWW65/nda1r385xEOztRxKdCEBKzJmE7VYDeaDEvitNVj1pkfJH9U4t9bHIFre0l8f07Cyo3nkfize+XqCh6929+fYA3w87v1FbFd5aEB9sqd/kqIv1sgrKqb5+zmP/B1LXr7eF1tB6Iw1xXykmZ38y21l64D6a2fXJVMk4MW2WPxdnCzGag4/FMGxGrFKMY/7S2V4jOc9zr0QWfU8PY3VH36YdYf6LPQH6zPuQSg3m/gByVfbGdVEZCyndc09GmM8n6U+PnnkSuALCYr3+3M2ftU8t9ZFe2z3Mmj4zNtYAnReuR84D3MwBUkkrQV2wHZAHm72d/dieVRDCqIjyk2tHs3xNf4Naw52aUA7aYftgu6CdWNt+k570O0nSKfVXbEdo1wI+CI1G4qDs4k33m4uFsP+UMTHnYzFcr4a8/iclsF7tgxLjvm0j2uQOP3lWFzfcGxrMOnFYr45ekIWzuJnWMm8uGnE6pDnKcwsz3Orjwt9Al7TU5gTJq+sxEpj3k7wnKduvmhr/g59AgsBLQqLMafaihxf4yqs3v/dBK/j3h6LHGheQWYiwZNkh+RpYSgB3/JD9wngF1gThn2w7bxNse2fHpjHqDfwpRjPoxwX+3JMx5+DlWqaHuM1HE7wLbM4mesr8JuoLMF2AbYrcnGC5z5EUzN2zsQ8wEmI9+NSEKqaW+HnVl9gTMDjvodt9eedBVjFkekB730d5lndrJmIn4OFRxSlCMIUF/B5ZynmhZ8Rwk72xLqpNrWTD0Pqo2HkpNmmBLyxEAst2R+LzdsTy36+EdvWetsfTgv9s8rFfZw1Rb9O/BUppmEhQA0xHb8OODoj93gJ5hl8KaLjlbCk4JsSOv/+uZ6B6XvfT8C2d5PgROCPObp7RZhb/bASkkF4H3i+AO/PkoupCwm+I70RFsfcptnxJmHVe4rAh+QveXV913opwev998aqzrRtZifPEzwcZkty0nCy6AL+IyxBYiDWNOBhLC61tS/huLgrwZfXM8Tr7ToiI/f6JOCNmBZaSbRG76d1dmyMxyo7JcHXsUobeSLvc6sWK4MXtFnQq1ir+SJQDqX5D8EcQrW07A39LzmJU94Aa9xOVhTETtYAv8ca1QXJ0WqzDjt5neDhVluTTFM+CfgYHzY/xuItr8S2doLwKcLVNW0Ny3xRkSQ/wypExMGemJclTf7ui6I4WEHrKsJUSvfczsZ0ve97Y/G7STwLv0F+6jwXaW6VCN4AZoaLiyL1wpjv9h2kRF8J62HSfJzeT2jxljYzKV7X5UVYdMOyAN9pwML0mov+ySHsZAuy1/grFEWsQvM6FjbyWgXHODLG87uU5BsNLMdiGK+JycY+DdyX4j0/L+bj34/F4sXZ8Kcul7MxXfE+FqvGlMTYfg+rmZ038jC3OmHNgFpiDRZ7OzbgMT8kfBfKaqWE5XWcAYxo5Xem+v0ttTDu7/hiIM86ZRrxF5PIIrcBp9L6vjTvulhvvruzyv88CF2AA7AwnjaEK0SyzOf3PAn45LgXSzxdVuFxDo3p/FYAV6Q0Nr/HPPG9Yjj2PikK+IlYQlTcL64bsCoacdEld7MxXfG+DeY97pqQeL8oh8/TvMytTsBl6/i7Bp97QUPYpruILxoL/V5dhVUPWR8NWKPBBetZBM0h3+GDMylWxZ0yC7C8w8vYcDfVEhYpsS6x/BG2+xOkF8EXsd3XoDuvZbG/EnO0Pgbc4QsxCfgY+RNW+aHShM0BWAxVHPzRDTENVmHNa86M4dh7pXzfk+CumEVGba5mY7rifTBW5nDjBH7ropyK9zzNrRpa7zEOIuDnUUxuw0pzfm09Ir4e+C3rzwf5EPPQ51nATyPfZUY3pHeGYZ74Dhuwkz+w7pj5aVjCcxAB39c/UWibMVgEwxtJD2BRBPzdEYl3iLfbW9rJbXfEJOBHYuUkF6RwTQ8l9DszsK28YYgsi3ewijNJ8AvM+55XNLfWL8zqCzrDlwI/x2KWx/t969rk797CGvtcw/qTfKdgHuq80kC8ZZyzzmKsctFc4HNYTmKXZnZyLxZ6uL4O9DN9vu2QwjV0AY7xhepXk160F0HAvwIcS3SlEneL6TxnYRVh0uQ5LKEojhJL25N8rdsFWAnQJMdPAj7b4j0pfoOVos0rmlvrZqU/R4vMHMwr+ai/MwdiOx1TgGexBletsbGgVXwWY7Hz85vpmy7AjhFe30KsUg5YiEcNtju/ZYBjLHHxWmRmYaG7j2JNKzdtsnh7Fuvq3Jp7sTDl6zgC67h8nQR8dNQD/0O0JZrGxHSu/yBYWaU4KGHtiuNI0h2RgoB/OeHfe1MKXeId2/I9LefXqLm1fuG5RBMeXIQ9G/K7K0KM4/tYs6Cn+HjZwW1dYEXFG1gcNZhzsA3WLfSnARcbC2UigOXTTAz53WWkH4bUgOVXSsBHyKURv2jaEH2sZJknMjJm/4pJwG+fwrVMTfj3ipi0JvHe8nMi7+UDNbfWzRIJ+EioJ7gHvtYXUIubibq+EZ/baj4Z3hO0OMZSihv/HiUrMzCObYGhabxo8so8bGsmSoaw4cz6sEzKyLi9FtNxt03hWpLODJ+jZ6kAvoJVOMgzmlvrF2YrNA0iE2dB6EoylaWa0xnYJOB3VhC8B434JI0h7CQuEZ/vH0yQX8UwObaI8XzzXgt2UAq/mfRLdDVCGL8DtqPykrVZRXNr/YKiQVMgElYF/Pe1pOOYbBNCTzWQfthsUe0kjjk/JQ2jy+uq/aoYjjtA8yQ0fchbKcRPski3WThDsCQ+Uby51ShhFhn1BAtHa5OSrqkJ8bta6EXHmgwsIBIPg86rgL+XeJJD+miehKa2AONX0m0WTTgd2FnDoLklKtIoQTplpuXVLkmMp0ra0SRzsF1XCfgI+GNMx+2oeVIRAzUEokDUYB2O22soCkV7oE7DEAlBxzEtAd9I8Lr/dWy4C6loHe1S/O3ZwFmk0MgpjwJ+FfE1GNlI80QLICECMAwrayeK9ZyTMIuGziHe/2mEU6wheBx2B70TI6E2hJ1EwUpgAtbI6T5S2IHJYxLrM8SXkdxJc6UiumoIRAH5LnAnaxu/iGzeo+aUvap7A4cGOFaXlARF3mgDdAv4nWWkU5FkDcFLh3bWOzES6kKM44dYN+C3Qi62V2A9B17z/6ZCHgX8YzEbiqhspSxEEe3+JqwTZL2GI5NcsY4/b8CqmQUR8L2AHhrSiukUQpgtIZ0SnqUQAr6724qojM4hFnpvYTHrL4fUwfVkIOchjyE0L8qeM0t3DYEoKNvTspdXZINV6/jUYz1FgpSxbC9hFgm9QrwzFpBe6db5BEu27qqFXiT0AHqGsJPZLsJXhfhkImE5jwL+NdmzECKD/BAYrmGoOla6iA9Cf/Lf6TxuNiV4B9UFpNcFdyHByp22AfrpNldMnxDjuIRsNH+SgG/CMuJtub1Qc6Ui1J1QFJk6rCpNGw1FVTGf4J1nByIvfKUMdhEfhNmk1zNgCTA1hJ2oOEblC73BIexksQR8tviIeOsFq1FPZazSEIiCsxNWH15UD/MI3mWxbwhRIT7OEGCTgN/5EFie0vkuAj4I+J0+fp2iMjvZOOB3ppF+8ycJ+BZuSpzM0VypiOUaAiG4ANhMw1A1zMWcQ0EYDGyloQtNW2BLgtX3XkMK7eybsDCEgN8U2Fa3OzR1wNCA31kKzMjDxedNwMctsGdovlTEbA2BEHQCbiBYh0mRHosJHprZHxihexyaIS7gg/Ae6TrZFocQ8P2wBHcRjqHA5gG/8w4wUwK+eAL+I80XCXiRe5JIbtob+IqGuipodHEYdMt9G1RlJCxjgEEBv/MatluS5nPjLYJ1gm2HeeDVNyAcI4AtAn7nbXLijM1blvzqmI//dozH/iXw85xPNuUQFJXbx8PRE6rhTCcBxwH/Jv4mK5cA9xN/6J+onBmY527rAN/ZDNgB+KeGLxA1wFiC5xBMJni1oKiZioXxBDn3QcBo4Gnd+sB2MgZLBA5qJ7Mk4LNH3PVfF/qDPI7ST2NRlRshEZ8mLwEH+ELzu8DVMf9eN+BagjUJEukwC+sxEkTAbwnsJgEfmE2AUQQPP3otA+/Q+cDzAQX8EGBfCfjADARGhvjeW+QkH0/lzIITV6OoXQnejECI6hPxt4/P4pm9AezH2l2i64BnEvjdQ4BjZBiZZwbwQsDvdAB2IXiXyKKzF8HjmmcQ7w55a5mL7d4FoYu//zvo1gdid2BYwO98ALyflwGQgA/OpJiO2xb4rIZXFEbIZ4d3gf35eA5NI3Ay8YflAfyK4OXyRLKsxnZogvay2ArzrorWczAwIOB3niYbiYnLXcAHyZeowXZrZCfB2I/gfQKeId5eQRLwGefJGI99soZXFErEpy/kpwEH0nIDljdIJi9lY+BKGUTmmULwHdgBwJEaulYzGssbCBre+wTZiGsuYV7e/wb83qbAl3T7W804t5PagN+bSI6qCUrAB+dZ4usougvwKQ2xqAI6Rirk02Eu5nl/Zz3/5kLg9QTO5WhgvMwq00zHko6D0Naf6bto+FrF8QQPn1mIxZ1npVHgHODvAb/TzkXpGJlAqziG4PXfZ/nCql4CvrisAh6J8fg/1RCLKqB7lZ//YmwLdkPifDVW7rGUwDn9JgfjmmeWAI8TvFjCIOAUDd8G2QZLIg/qHHiYbJV4Xgo8RPBytAOAb8gMNshIrAxv+4Dfe4Tgdfol4HPInTEe+wDgcxm73r4EjzUT+WaLSI+WrBd+hc+z/7by3z/r4jpu+gOXybQyzbtYuEYQ6oB9gD00fOvldIJ738vv4/kZuo5GbFfv6RB2ciCW0CrWzTcJ3uQL4B7S7RMgAZ8RJhBfGA1Y+breGbnW7YHnXMRso1svnE9X8bn/CvhXwO98n2TatJ+IhfWIbDIfuDXE9/oCZxPca1ik58l4F7FBmIwVllidsetZBNwc4nu9sRK2qkjTMnthSc5B59GrWHLx6jwNhgR8OBYDd8d4/P7A7SEeZlHzWfciDPTPM1hdYyH2JZy3bN0k54UP8xBfQnLb29dhpeVE9liNFTKYHPB7bTEv/Bc1hJ9gI+A8wlVi+j3Z7PC9Gqv//xbBwu9qMS/80TKLFu3k+0CfEN+9mZw0b5KAj4a4m7zsCfyZdJpt1QGXYltOTYVEdyze8Ajd/sJTA/ya4M1WmtOO6mkod58vrONmCPnvylzNzPVFVlA6AD8k6vCz6qYtcJI7BILokRJWNvJOspO82pKd3EjwpMl2wI+wEqRi7fvmZMwDH7TyzEzXMsvyNigS8OF5luDb8EE5HMtm757gdY3ESi2duZ6X0B3AaTKBzBP3i+1g4Baga8DvdQIOAn6HeUUGVNGYnkEy8bbfRLtdWZ5XdxCuIcxmLs5U999E2TjgXIIniTcAN2E1vUsZvb4Gfz6GOcfNgO8RztucR3YBzgkh3ku+iJqax0GRgK+MXyTwG/tjHQDjfpl3AS7x3xrTCrv5NVZir0ZmkFlWJPAb/+NC5iLMizbQF5zdsXbiw7Et4W8AV2DxqouxcnwnAT2qbExnAd9OSNzcgGJhs2wH1xK80gjAsVgoTeeCi/ctgAuwDuRB3iMlrJb39VjCaFYpn+cfCOf9PRHrIdCp4HNtMHAx0CvEd6djYVYr8jgwEvCVcQ/B22uHYTPgKfc4DIpBuJ+DlVc6K+AK9xwstqxOppBJkqrM0AtLvCqXc1vgnw+wZkgPAFdhVSbGEtyLkjVuAh5N4HeGYd5akT0aMM/eu4TzAF+EVaWpLej49cV2ecNU5lnmouw9sut9b8p1FZzrRVg4bVHtpA/wA8L1UVgB/JYcdV6VgI9+hX1Wgr93vD8I/oSVwQs7qdtisWS/dw/BhSFXt2DepL8B3WQOmWO6hiC2eX8KyXh1zgZ21JBn0gbmYh10F4X4fkesZOgOFG8Xsyu2c/e1kN//gGTKukbFLGw3LYxDpQu20z+mgHbSDduFODnk/HzPF0/1eR0gCfjKeRz4S4K/V4ttvz4IzMNKWn4fOBQYhZWh6u6f3lhC3E4utH/k31uIeRBPIJpqF/v5OPSVOWSKqRqC2HgXOD+h+X4DltgmsseNwH8IF8ox1EX81gUar1qswsrPQn5/vov3OVV23dcRfrd+G8wTP7xAdtLe7eTHIb+/BCsXPJvq2KWRgE+RM9xgkmYjrOnTBcC9wIu+2i+HMMzC4pOfxZJpzsc893HEXo723xkmc8iUyBTxcZnPubjZHgtXE9ljjT9/w+x21WDOlcsKJM6OBX5JuLDLkr9jbq5CUbYayzEL00uiDbC7f39oQezki369YeykAQs5vjXP4l0CPjqmkmwoTVYZgtWK31lDkQn+oyGIlXrgK/7CiJtzgW015Jnkaazk7/IQ3y2HM/6qAPf3ZCwcpHvI77+HeWSrNSHxCax60cqQdrIvcDn5b6h4ittJ2LDcKf68XJnzcZKAj5DrMS940ekFPII1gRLp8go56zyXQV7wl2rc1GFlN2s15JljDdY3Y2IF93YfLJ4+j6VD22FJ7j8mfIfxhVjvlWp2SqzCvMpPV2An+2MV4HbNoZ3UYaUzz6/AThZh1c7+W4QHjwR8tJxAuNrAeaMj1vCmt4YidWHxpIYhdn6EeQfjZhxWyUdkj1nATwkftlb2xF8OHJWjcemLeVO/DfSr4DgTsOpPjVU+HjOxohGV2Mk+WNhVnhoq9sNKRZ5ZgZ2UMCfqzUV56EjAR8sCYDywVEPBGWSzxXXRmKAhiJ3lwKkJ/dYFwJYa8kzypAuruRUcY0csYfE7hK8MlhV29QXJ14CNKzjOEz4m83NiJ49iIVOV2MnYJgujHlU+Hru5nXy1Qjt5CutgvUACXoTlZcyD0lDgMbgYq78q0uevBbfFpPgn5iGMm45YuJ4aqGWTP2BVgyqJv90c+KE/R6sxVKI7Vv7vEuALVNaMbLIvWifnzE5uxULiKglx3AILN7mUcHXSs2AnJ/n5H41VnqnETn4GvFmkh40EfDw8iNVsbyzgtf8OVczIEtOBuzQMifBtkilvtyeW6CWyxxKszOEdVFYBo3MTcXMq1o0y67TFvKkXYDsRO0Xw7LoQaxCXNxa6ndxZ4XE6+2KpbCdDquDaa31h+lM/77Gyk/ATTsTDH/2/txRoofQ7f4iUdPszxeWYh0PEyzwsRv3PCfzWL4H7CVeWTsTLVBcUPYFDKjzWOCys5g63qxfJXn+HtsB2WD+QY4ERERxzrj+3bsuxnUzBvMabYMmplbAT8Cm3k9uw5Pqs2Uk7rILOfsBxEdnJPF8s3lrEB40EfPwifpk/eDvk/FqvxOLeJd6zxyR/sH9eQxE7t2FdJg+O+Xe6Atcm8DsiHG9ipey6AntUeKxy876Dsd20O4DXgWmku8vbBfP47uo2H1UFnYVYxZlrscotebeT7/hY7hKRnRyCefZvA97APNRp2klXt5Pd/Px2j+i4C7BdjGspaJioQmjiZwJWXWBWTq+vEauBf7rEe6b5ri8mRfx8nWQS2T/jwklkk5cwp8akiARUNyys5q/YDszhwGZYQ7+kciLaYdXFRrud3+wCKirxvsiPdynFKQbxEvBNrERmFO/Qrm4nE7A8ivEuoJO0k7pmdnKTL8p2j9BOrsbyLAr7XpMHPhn+BeyAeU7yVL91AfAlLOZfZJsPsGoQt2goYucj4AdYPeK4uQJ4CFV8yrI4O9lF6diI3rkdsZC4o7FQiXux3htvYcmzK7ESslGIwVoX7R2xkKBRmIf3YCz0I0rK+QM/L6Aoe9FF941Y5+Uo7KQT5vH+oi8O7sUq4MRlJ3VYpEEvF+4H+2fjGOzk1744KXTFPwn45JiOJZ+d6y/3ah/7p4FjXKyI6uAPvoA8VUMRO1f5i3OnmH+np4ueozTkmeUVLNHwOsxTHeWzfwf/nIs1r3nSn81vYzHQqzDvf6MLtdI6BFuNf9r4p8ZtawgWt7w31mE7rmTalVjewK+o3k6rlfIy5hC73se6XYTHHuOf85rYyTNuJ1MqtJMebifbYdEGuwIDY7aTK1G5bgn4hKnHyj7d08QjU22swBrXXIbKE1Yj38C2WL+koYiVRszz+kLEL+KWOBI4DAutENnkLZ9zl2O5KFGHMrTFkl3HYGE7i1yYfQS842J+GpYcuhwrX1hyEdYeC6/YBBiEheVsjjXU2ayJTogr/GIRFob5pwKL96Z28nl3AIyPQaM1t5OFbhtTmtjJ1GZ20oh52NtjpR83AQY0sZP+LuDbxWwnS4FvYbH9CgeVgE+NF32FfSLwE58A1cC9PoHUbbZ6acDipt/DvHZpczeVNTTJMq9iDWjOS+C3rgEep0BNTKqQmdju17tYTkptDL9R48ft6WJrW5/zjU0+8HHvak2TT62L+lrWelrjFqynYR7hlTIRwMLhTnJBfVZMDoDyve6FedCrwU5OdztZIRMxlMSaHo1Y2cUtfZLOyPC5PodtoX5O4j0XlFxUHkw6IVAl4D4svORI8r0VegHJNBfpg3l3Rbbn3SKsg+ZxCcy9NpiTrj0Ww94Z233riiXElj9dsSoonbEY5romAi1O7sR2jh6VeP+EnSzBQkW+QvylYrNuJ39pYicS7xLwmWIFFo4yBDjBxXJWeBir2ToOeEy3Knfcj8W3nkcyXvB5WIzrNsBnseocazl6Qh7HeBUWSpMEx1N5PWkRP4uxnafPuzgpGvOxHYhvYeUw62US67STO7Bk5XsKeP0LsKaQp7udrJFJSMBnldVYSa5xwEisTNgHKZzH+5jXcCsXA//Urck1y7BmIoOwpOS/EG184TRsp+kgLFTsfylYu2ssqfDahH7rBsxLJrK/sJuEde89C/iwINf9ANbs6VqssINYPyuBZ4EzsXrx0wpmJ9cU6JoDU1MqJVu6u+aOwzoTX1JXuTRSnhgBHIBVsNkNSzaKWsA9jXnYH8Ay4ZMkT/ZQi20zxsXCBK9jJNbZb2tgKLApVte3B59sSrbYz22GP2zfwDwmEwMtQvPpgU8Tza3sza2W6IhV7jgO87bW5dAW38RKJN4LTE7h90dhuWdR8YS/k5OkE1ZH/Xhs96Y2h3YyGXP4pGUnFZG0nk4jiVXZw8F4xT+XYMkiW2J1Yrf2/z3AxVUPLGmp+cN/DbZlOR9LjvnAP29gNYrfJt1qMnmyh4aUhUCU1/FixC88obmludUyK7Cdzsm+6D0C2Dcn1zYdC/+4C0tAVLhMeJYD//DF0NNY/tBeObm2aW4nd8tOWk/iHnghhBAilhdaTU0eLmME1izpQCzRuxo98h+5yLwPy7VZnPL5jKL6PfDN2R44FNuhH0f85WrjYIqP5X1YBMCSap64iUe0SMALIYSQgM8c22OVovbGyvz1zfj5NmC7CC+4aL8fq7qTBfIo4MvsgOUYle2kT8btpNHt5N9YF/e/ZWCBJwEvhBBCSMBHykAX8nu6QBuElfXLihibiYVlPoeFeDxC9iqGjKV51av8CPgyQ7Bdm32A4VjX3K4Zs5OP/D48hFW5y1VlGQl4IYQQQgL+E5eHNQDcH9jFBVu5YVOSCY0rWJtT9aqL2X9gHTyzyv5+jnkW8GXaYKFXB7m9DG5iJ21StJMnXbTntuJSEZJYhRBCCBFQH2BJrhOxpjujgD1crA1zkda+yScKUb8aK3m5EkuinI5VKnsKi3GvFjHWPeLjrc7wtTY2sZM6YEe3k3FYeeiynTRtxlQpa9xGVmGN+WZixTce8/P4UNNXAl4IIYQoOuU68uWwkN5Y6detsUZpw7CY+XLnzLaYB7/8wf9barI4aPT/rsQqGC104fW6f97APKnVGPawfcTHW14l1726iZjHbWIEFmKzHbAF1p+ji39qm9lJTbMFZKmJrZTF+lKsf0zZTl7zz2pN03hRCI0QQoh8vNDyHUIThLZYnPymWFJjL8wL3RmrO9+2iYBfg1X/WIJ1v5ztn+ku5vMgEp7C+qhExe3AF3IwLrWYR76fLwI3wXrNdMU89G2xsJsG1nrYF2GhMfPcRmb6gqbwYlIhNEIIIUQVvEAzTD1r+3+8UvAF23ZYo6womZYTe2sA5vhHVBltNARCCCGEyCGdgJv5eChIFMzQ0AoJeCGEEEKIaNkByxHYIYZjv63hFWmjEBohhBBCVBU1NTX7A/sC7wFzscTbLlh5zQOweuhx8ZLugJCAF0IIIYQIxjbA2Sn87nyscZUQqaIQGiGEEEKI1vGwhkBIwAshhBBCVA8PaAiEBLwQQgghRHWwFPiLhkFIwAshhBBCVAd/whpeCSEBL4QQQgiRcdYAF2oYhAS8EEIIIUR18GtUfUZIwAshhBBCVAWvA+dqGIQEvBBCCCFE9pkHHAWs1FAICXghhBBCiGyzCDgY88ALIQEvhBBCCJFh3gF2AiZpKIQEvBBCCCFEdikBVwGjgTc1HEICXgghhBAiu8L9HmAMcBrWtEmIzNJWQyCEEEKIgvIS1l31ZuBDDYeQgBdCCCGESJ+lWELqNGAq8CrwMvAUMFvDI6qRmlKppFEQQgghhBCiSlAMvBBCCCGEEBLwQgghhBBCCAl4IYQQQgghJOCFEEIIIYQQEvBCCCGEEEIICXghhBBCCCEk4IUQQgghhBAS8EIIIYQQQggJeCGEEEIIISTghRBCCCGEEBLwQgghhBBCCAl4IYQQQgghJOCFEEIIIYQQEvBCCCGEEEIICXghhBBCCCEk4IUQQgghhBAS8EIIIYQQQggJeCGEEEIIISTghRBCCCGEEBLwQgghhBBCCAl4IYQQQgghJOCFEEIIIYQQEvBCCCGEEEIICXghhBBCCCEk4IUQQgghhBAS8EIIIYQQQggJeCGEEEIIISTghRBCCCGEEBLwQgghhBBCiND83wD+BrItU9BLNQAAAABJRU5ErkJggg==;" parent="1" vertex="1">
          <mxGeometry x="44.02000000000001" y="337.42" width="182.95" height="48.17" as="geometry" />
        </mxCell>
        <mxCell id="CR4Q3jNyHGY_8PaVD7FN-52" style="edgeStyle=orthogonalEdgeStyle;rounded=0;orthogonalLoop=1;jettySize=auto;html=1;entryX=0.5;entryY=0;entryDx=0;entryDy=0;" parent="1" source="CR4Q3jNyHGY_8PaVD7FN-53" target="CR4Q3jNyHGY_8PaVD7FN-54" edge="1">
          <mxGeometry relative="1" as="geometry" />
        </mxCell>
        <mxCell id="CR4Q3jNyHGY_8PaVD7FN-53" value="Add Room Details" style="rounded=1;whiteSpace=wrap;html=1;" parent="1" vertex="1">
          <mxGeometry x="983.5" y="754.5" width="82" height="46" as="geometry" />
        </mxCell>
        <mxCell id="CR4Q3jNyHGY_8PaVD7FN-54" value="Name for the entry (for example: room1), address, PIN CODE (explictly), location permission, 3 photos of house, type of room students / family, rent, security deposit" style="rounded=0;whiteSpace=wrap;html=1;spacing=8;" parent="1" vertex="1">
          <mxGeometry x="914.5" y="864.5" width="220" height="99" as="geometry" />
        </mxCell>
        <mxCell id="CR4Q3jNyHGY_8PaVD7FN-55" style="edgeStyle=orthogonalEdgeStyle;rounded=0;orthogonalLoop=1;jettySize=auto;html=1;entryX=0;entryY=0.5;entryDx=0;entryDy=0;" parent="1" source="CR4Q3jNyHGY_8PaVD7FN-56" target="CR4Q3jNyHGY_8PaVD7FN-60" edge="1">
          <mxGeometry relative="1" as="geometry" />
        </mxCell>
        <mxCell id="CR4Q3jNyHGY_8PaVD7FN-56" value="Dashboard" style="rounded=1;whiteSpace=wrap;html=1;" parent="1" vertex="1">
          <mxGeometry x="1094" y="754.5" width="82" height="46" as="geometry" />
        </mxCell>
        <mxCell id="CR4Q3jNyHGY_8PaVD7FN-57" style="edgeStyle=orthogonalEdgeStyle;rounded=0;orthogonalLoop=1;jettySize=auto;html=1;entryX=0.25;entryY=1;entryDx=0;entryDy=0;exitX=1.003;exitY=0.497;exitDx=0;exitDy=0;exitPerimeter=0;curved=1;" parent="1" source="CR4Q3jNyHGY_8PaVD7FN-58" target="CR4Q3jNyHGY_8PaVD7FN-54" edge="1">
          <mxGeometry relative="1" as="geometry" />
        </mxCell>
        <mxCell id="CR4Q3jNyHGY_8PaVD7FN-58" value="Each entry should have a unique&lt;div&gt;name to be populated&lt;/div&gt;&lt;div&gt;in the dashboard&lt;/div&gt;" style="text;html=1;align=right;verticalAlign=middle;resizable=0;points=[];autosize=1;strokeColor=none;fillColor=none;" parent="1" vertex="1">
          <mxGeometry x="721.5" y="978.5" width="193" height="55" as="geometry" />
        </mxCell>
        <mxCell id="CR4Q3jNyHGY_8PaVD7FN-77" style="edgeStyle=orthogonalEdgeStyle;rounded=0;orthogonalLoop=1;jettySize=auto;html=1;entryX=0.75;entryY=1;entryDx=0;entryDy=0;exitX=-0.005;exitY=0.542;exitDx=0;exitDy=0;exitPerimeter=0;curved=1;" parent="1" source="CR4Q3jNyHGY_8PaVD7FN-78" target="CR4Q3jNyHGY_8PaVD7FN-54" edge="1">
          <mxGeometry relative="1" as="geometry" />
        </mxCell>
        <mxCell id="CR4Q3jNyHGY_8PaVD7FN-78" value="Every entry will have&amp;nbsp;&lt;div&gt;edit &lt;span style=&quot;background-color: transparent; color: light-dark(rgb(0, 0, 0), rgb(255, 255, 255));&quot;&gt;and delete button&lt;/span&gt;&lt;/div&gt;" style="text;html=1;align=left;verticalAlign=middle;resizable=0;points=[];autosize=1;strokeColor=none;fillColor=none;" parent="1" vertex="1">
          <mxGeometry x="1134.5" y="1000.5" width="133" height="41" as="geometry" />
        </mxCell>
        <mxCell id="CR4Q3jNyHGY_8PaVD7FN-82" style="edgeStyle=orthogonalEdgeStyle;rounded=0;orthogonalLoop=1;jettySize=auto;html=1;entryX=0;entryY=0.5;entryDx=0;entryDy=0;" parent="1" source="CR4Q3jNyHGY_8PaVD7FN-83" target="CR4Q3jNyHGY_8PaVD7FN-85" edge="1">
          <mxGeometry relative="1" as="geometry">
            <mxPoint x="868.9782608695655" y="65" as="targetPoint" />
          </mxGeometry>
        </mxCell>
        <mxCell id="CR4Q3jNyHGY_8PaVD7FN-83" value="PIN" style="rounded=1;whiteSpace=wrap;html=1;" parent="1" vertex="1">
          <mxGeometry x="694" y="50.5" width="120" height="29" as="geometry" />
        </mxCell>
        <mxCell id="CR4Q3jNyHGY_8PaVD7FN-84" style="edgeStyle=orthogonalEdgeStyle;rounded=0;orthogonalLoop=1;jettySize=auto;html=1;entryX=0;entryY=0.5;entryDx=0;entryDy=0;" parent="1" source="CR4Q3jNyHGY_8PaVD7FN-85" target="CR4Q3jNyHGY_8PaVD7FN-92" edge="1">
          <mxGeometry relative="1" as="geometry">
            <mxPoint x="1166" y="65" as="targetPoint" />
          </mxGeometry>
        </mxCell>
        <mxCell id="CR4Q3jNyHGY_8PaVD7FN-85" value="Login Successful" style="rounded=1;whiteSpace=wrap;html=1;" parent="1" vertex="1">
          <mxGeometry x="950" y="52" width="144" height="26" as="geometry" />
        </mxCell>
        <mxCell id="CR4Q3jNyHGY_8PaVD7FN-86" value="Enter Phone Number" style="rounded=1;whiteSpace=wrap;html=1;" parent="1" vertex="1">
          <mxGeometry x="316" y="656.5" width="144" height="26" as="geometry" />
        </mxCell>
        <mxCell id="CR4Q3jNyHGY_8PaVD7FN-87" style="edgeStyle=orthogonalEdgeStyle;rounded=0;orthogonalLoop=1;jettySize=auto;html=1;entryX=0;entryY=0.5;entryDx=0;entryDy=0;" parent="1" source="CR4Q3jNyHGY_8PaVD7FN-88" target="CR4Q3jNyHGY_8PaVD7FN-83" edge="1">
          <mxGeometry relative="1" as="geometry" />
        </mxCell>
        <mxCell id="CR4Q3jNyHGY_8PaVD7FN-88" value="Enter Phone Number" style="rounded=1;whiteSpace=wrap;html=1;" parent="1" vertex="1">
          <mxGeometry x="316" y="52" width="144" height="26" as="geometry" />
        </mxCell>
        <mxCell id="CR4Q3jNyHGY_8PaVD7FN-89" style="edgeStyle=orthogonalEdgeStyle;rounded=0;orthogonalLoop=1;jettySize=auto;html=1;entryX=0;entryY=0.5;entryDx=0;entryDy=0;" parent="1" source="CR4Q3jNyHGY_8PaVD7FN-90" target="CR4Q3jNyHGY_8PaVD7FN-94" edge="1">
          <mxGeometry relative="1" as="geometry" />
        </mxCell>
        <mxCell id="CR4Q3jNyHGY_8PaVD7FN-90" value="Login Successful" style="rounded=1;whiteSpace=wrap;html=1;" parent="1" vertex="1">
          <mxGeometry x="950" y="52" width="144" height="26" as="geometry" />
        </mxCell>
        <mxCell id="CR4Q3jNyHGY_8PaVD7FN-91" style="edgeStyle=orthogonalEdgeStyle;rounded=0;orthogonalLoop=1;jettySize=auto;html=1;entryX=0;entryY=0.5;entryDx=0;entryDy=0;" parent="1" source="CR4Q3jNyHGY_8PaVD7FN-92" target="CR4Q3jNyHGY_8PaVD7FN-97" edge="1">
          <mxGeometry relative="1" as="geometry" />
        </mxCell>
        <mxCell id="CR4Q3jNyHGY_8PaVD7FN-92" value="Button to provide location permission" style="rounded=1;whiteSpace=wrap;html=1;" parent="1" vertex="1">
          <mxGeometry x="1176" y="40" width="162" height="50" as="geometry" />
        </mxCell>
        <mxCell id="CR4Q3jNyHGY_8PaVD7FN-93" style="edgeStyle=orthogonalEdgeStyle;rounded=0;orthogonalLoop=1;jettySize=auto;html=1;entryX=0;entryY=0.5;entryDx=0;entryDy=0;" parent="1" source="CR4Q3jNyHGY_8PaVD7FN-94" target="CR4Q3jNyHGY_8PaVD7FN-97" edge="1">
          <mxGeometry relative="1" as="geometry" />
        </mxCell>
        <mxCell id="CR4Q3jNyHGY_8PaVD7FN-94" value="Type of room&lt;div&gt;(student / family)&lt;/div&gt;" style="rounded=1;whiteSpace=wrap;html=1;" parent="1" vertex="1">
          <mxGeometry x="1176" y="116" width="162" height="44" as="geometry" />
        </mxCell>
        <mxCell id="CR4Q3jNyHGY_8PaVD7FN-95" style="edgeStyle=orthogonalEdgeStyle;rounded=0;orthogonalLoop=1;jettySize=auto;html=1;entryX=0.25;entryY=1;entryDx=0;entryDy=0;exitX=1.008;exitY=0.596;exitDx=0;exitDy=0;exitPerimeter=0;curved=1;" parent="1" source="CR4Q3jNyHGY_8PaVD7FN-96" target="CR4Q3jNyHGY_8PaVD7FN-94" edge="1">
          <mxGeometry relative="1" as="geometry" />
        </mxCell>
        <mxCell id="CR4Q3jNyHGY_8PaVD7FN-96" value="Choose from&lt;div&gt;radio button&lt;/div&gt;" style="text;html=1;align=center;verticalAlign=middle;resizable=0;points=[];autosize=1;strokeColor=none;fillColor=none;" parent="1" vertex="1">
          <mxGeometry x="1083" y="172.5" width="87" height="41" as="geometry" />
        </mxCell>
        <mxCell id="CR4Q3jNyHGY_8PaVD7FN-97" value="Click on SEARCH" style="rounded=1;whiteSpace=wrap;html=1;" parent="1" vertex="1">
          <mxGeometry x="1420.5" y="86.5" width="120" height="26" as="geometry" />
        </mxCell>
        <mxCell id="CR4Q3jNyHGY_8PaVD7FN-98" value="" style="rounded=0;whiteSpace=wrap;html=1;" parent="1" vertex="1">
          <mxGeometry x="1421" y="163.5" width="301" height="226" as="geometry" />
        </mxCell>
        <mxCell id="CR4Q3jNyHGY_8PaVD7FN-99" value="1 room photo" style="rounded=0;whiteSpace=wrap;html=1;" parent="1" vertex="1">
          <mxGeometry x="1433" y="176.5" width="120" height="60" as="geometry" />
        </mxCell>
        <mxCell id="CR4Q3jNyHGY_8PaVD7FN-100" value="Monthly&lt;div&gt;rent&lt;/div&gt;" style="rounded=0;whiteSpace=wrap;html=1;" parent="1" vertex="1">
          <mxGeometry x="1563" y="176.5" width="67" height="60" as="geometry" />
        </mxCell>
        <mxCell id="CR4Q3jNyHGY_8PaVD7FN-101" value="Security deposit" style="rounded=0;whiteSpace=wrap;html=1;" parent="1" vertex="1">
          <mxGeometry x="1641" y="176.5" width="67" height="60" as="geometry" />
        </mxCell>
        <mxCell id="CR4Q3jNyHGY_8PaVD7FN-102" value="1 room photo" style="rounded=0;whiteSpace=wrap;html=1;" parent="1" vertex="1">
          <mxGeometry x="1433" y="176.5" width="120" height="60" as="geometry" />
        </mxCell>
        <mxCell id="CR4Q3jNyHGY_8PaVD7FN-103" value="Monthly&lt;div&gt;rent&lt;/div&gt;" style="rounded=0;whiteSpace=wrap;html=1;" parent="1" vertex="1">
          <mxGeometry x="1563" y="176.5" width="67" height="60" as="geometry" />
        </mxCell>
        <mxCell id="CR4Q3jNyHGY_8PaVD7FN-104" value="Security deposit" style="rounded=0;whiteSpace=wrap;html=1;" parent="1" vertex="1">
          <mxGeometry x="1641" y="176.5" width="67" height="60" as="geometry" />
        </mxCell>
        <mxCell id="CR4Q3jNyHGY_8PaVD7FN-105" value="1 room photo" style="rounded=0;whiteSpace=wrap;html=1;" parent="1" vertex="1">
          <mxGeometry x="1433" y="245.5" width="120" height="60" as="geometry" />
        </mxCell>
        <mxCell id="CR4Q3jNyHGY_8PaVD7FN-106" value="Monthly&lt;div&gt;rent&lt;/div&gt;" style="rounded=0;whiteSpace=wrap;html=1;" parent="1" vertex="1">
          <mxGeometry x="1563" y="245.5" width="67" height="60" as="geometry" />
        </mxCell>
        <mxCell id="CR4Q3jNyHGY_8PaVD7FN-107" value="Security deposit" style="rounded=0;whiteSpace=wrap;html=1;" parent="1" vertex="1">
          <mxGeometry x="1641" y="245.5" width="67" height="60" as="geometry" />
        </mxCell>
        <mxCell id="CR4Q3jNyHGY_8PaVD7FN-108" value="1 room photo" style="rounded=0;whiteSpace=wrap;html=1;" parent="1" vertex="1">
          <mxGeometry x="1433" y="245.5" width="120" height="60" as="geometry" />
        </mxCell>
        <mxCell id="CR4Q3jNyHGY_8PaVD7FN-109" value="Monthly&lt;div&gt;rent&lt;/div&gt;" style="rounded=0;whiteSpace=wrap;html=1;" parent="1" vertex="1">
          <mxGeometry x="1563" y="245.5" width="67" height="60" as="geometry" />
        </mxCell>
        <mxCell id="CR4Q3jNyHGY_8PaVD7FN-110" value="Security deposit" style="rounded=0;whiteSpace=wrap;html=1;" parent="1" vertex="1">
          <mxGeometry x="1641" y="245.5" width="67" height="60" as="geometry" />
        </mxCell>
        <mxCell id="CR4Q3jNyHGY_8PaVD7FN-111" value="1 room photo" style="rounded=0;whiteSpace=wrap;html=1;" parent="1" vertex="1">
          <mxGeometry x="1433" y="316.49" width="120" height="60" as="geometry" />
        </mxCell>
        <mxCell id="CR4Q3jNyHGY_8PaVD7FN-112" value="Monthly&lt;div&gt;rent&lt;/div&gt;" style="rounded=0;whiteSpace=wrap;html=1;" parent="1" vertex="1">
          <mxGeometry x="1563" y="316.49" width="67" height="60" as="geometry" />
        </mxCell>
        <mxCell id="CR4Q3jNyHGY_8PaVD7FN-113" value="Security deposit" style="rounded=0;whiteSpace=wrap;html=1;" parent="1" vertex="1">
          <mxGeometry x="1641" y="316.49" width="67" height="60" as="geometry" />
        </mxCell>
        <mxCell id="CR4Q3jNyHGY_8PaVD7FN-114" value="1 room photo" style="rounded=0;whiteSpace=wrap;html=1;" parent="1" vertex="1">
          <mxGeometry x="1433" y="316.49" width="120" height="60" as="geometry" />
        </mxCell>
        <mxCell id="CR4Q3jNyHGY_8PaVD7FN-115" value="Monthly&lt;div&gt;rent&lt;/div&gt;" style="rounded=0;whiteSpace=wrap;html=1;" parent="1" vertex="1">
          <mxGeometry x="1563" y="316.49" width="67" height="60" as="geometry" />
        </mxCell>
        <mxCell id="CR4Q3jNyHGY_8PaVD7FN-116" value="Security deposit" style="rounded=0;whiteSpace=wrap;html=1;" parent="1" vertex="1">
          <mxGeometry x="1641" y="316.49" width="67" height="60" as="geometry" />
        </mxCell>
        <mxCell id="CR4Q3jNyHGY_8PaVD7FN-117" style="edgeStyle=orthogonalEdgeStyle;rounded=0;orthogonalLoop=1;jettySize=auto;html=1;entryX=0.198;entryY=0.001;entryDx=0;entryDy=0;entryPerimeter=0;" parent="1" source="CR4Q3jNyHGY_8PaVD7FN-97" target="CR4Q3jNyHGY_8PaVD7FN-98" edge="1">
          <mxGeometry relative="1" as="geometry" />
        </mxCell>
        <mxCell id="CR4Q3jNyHGY_8PaVD7FN-118" value="" style="rounded=0;whiteSpace=wrap;html=1;" parent="1" vertex="1">
          <mxGeometry x="1799" y="116" width="207" height="294" as="geometry" />
        </mxCell>
        <mxCell id="CR4Q3jNyHGY_8PaVD7FN-119" style="edgeStyle=orthogonalEdgeStyle;rounded=0;orthogonalLoop=1;jettySize=auto;html=1;" parent="1" source="CR4Q3jNyHGY_8PaVD7FN-102" edge="1">
          <mxGeometry relative="1" as="geometry">
            <mxPoint x="1799" y="136.5" as="targetPoint" />
            <Array as="points">
              <mxPoint x="1530" y="136.5" />
            </Array>
          </mxGeometry>
        </mxCell>
        <mxCell id="CR4Q3jNyHGY_8PaVD7FN-120" value="&amp;nbsp;On Click&amp;nbsp;" style="edgeLabel;html=1;align=center;verticalAlign=middle;resizable=0;points=[];rotation=0;" parent="CR4Q3jNyHGY_8PaVD7FN-119" vertex="1" connectable="0">
          <mxGeometry x="0.1098" y="-1" relative="1" as="geometry">
            <mxPoint y="-1" as="offset" />
          </mxGeometry>
        </mxCell>
        <mxCell id="CR4Q3jNyHGY_8PaVD7FN-121" value="Room photo carousel" style="rounded=0;whiteSpace=wrap;html=1;" parent="1" vertex="1">
          <mxGeometry x="1809" y="128.5" width="187" height="74" as="geometry" />
        </mxCell>
        <mxCell id="CR4Q3jNyHGY_8PaVD7FN-122" value="Owner Name" style="rounded=0;whiteSpace=wrap;html=1;" parent="1" vertex="1">
          <mxGeometry x="1809" y="213.5" width="187" height="23" as="geometry" />
        </mxCell>
        <mxCell id="CR4Q3jNyHGY_8PaVD7FN-123" value="Full Address" style="rounded=0;whiteSpace=wrap;html=1;" parent="1" vertex="1">
          <mxGeometry x="1809" y="245.5" width="187" height="50" as="geometry" />
        </mxCell>
        <mxCell id="CR4Q3jNyHGY_8PaVD7FN-124" value="₹8000 / month" style="rounded=0;whiteSpace=wrap;html=1;" parent="1" vertex="1">
          <mxGeometry x="1809" y="304.5" width="89" height="50" as="geometry" />
        </mxCell>
        <mxCell id="CR4Q3jNyHGY_8PaVD7FN-125" value="₹12000" style="rounded=0;whiteSpace=wrap;html=1;" parent="1" vertex="1">
          <mxGeometry x="1909" y="304.5" width="87" height="50" as="geometry" />
        </mxCell>
        <mxCell id="CR4Q3jNyHGY_8PaVD7FN-126" value="Contact Number" style="rounded=0;whiteSpace=wrap;html=1;" parent="1" vertex="1">
          <mxGeometry x="1809" y="366.5" width="187" height="23" as="geometry" />
        </mxCell>
        <mxCell id="CR4Q3jNyHGY_8PaVD7FN-60" value="" style="rounded=0;whiteSpace=wrap;html=1;container=0;" parent="1" vertex="1">
          <mxGeometry x="1242" y="690.5" width="179" height="174" as="geometry" />
        </mxCell>
        <mxCell id="CR4Q3jNyHGY_8PaVD7FN-61" value="Entry name" style="rounded=1;whiteSpace=wrap;html=1;container=0;" parent="1" vertex="1">
          <mxGeometry x="1254" y="704.5" width="102" height="29" as="geometry" />
        </mxCell>
        <mxCell id="CR4Q3jNyHGY_8PaVD7FN-64" value="Views" style="rounded=1;whiteSpace=wrap;html=1;container=0;" parent="1" vertex="1">
          <mxGeometry x="1364" y="704.5" width="43" height="29" as="geometry" />
        </mxCell>
        <mxCell id="CR4Q3jNyHGY_8PaVD7FN-65" value="Entry name" style="rounded=1;whiteSpace=wrap;html=1;container=0;" parent="1" vertex="1">
          <mxGeometry x="1254" y="743.5" width="102" height="29" as="geometry" />
        </mxCell>
        <mxCell id="CR4Q3jNyHGY_8PaVD7FN-68" value="Views" style="rounded=1;whiteSpace=wrap;html=1;container=0;" parent="1" vertex="1">
          <mxGeometry x="1364" y="743.5" width="43" height="29" as="geometry" />
        </mxCell>
        <mxCell id="CR4Q3jNyHGY_8PaVD7FN-69" value="Entry name" style="rounded=1;whiteSpace=wrap;html=1;container=0;" parent="1" vertex="1">
          <mxGeometry x="1254" y="782.5" width="102" height="29" as="geometry" />
        </mxCell>
        <mxCell id="CR4Q3jNyHGY_8PaVD7FN-72" value="Views" style="rounded=1;whiteSpace=wrap;html=1;container=0;" parent="1" vertex="1">
          <mxGeometry x="1364" y="782.5" width="43" height="29" as="geometry" />
        </mxCell>
        <mxCell id="CR4Q3jNyHGY_8PaVD7FN-73" value="Entry name" style="rounded=1;whiteSpace=wrap;html=1;container=0;" parent="1" vertex="1">
          <mxGeometry x="1254" y="820.5" width="102" height="29" as="geometry" />
        </mxCell>
        <mxCell id="CR4Q3jNyHGY_8PaVD7FN-76" value="Views" style="rounded=1;whiteSpace=wrap;html=1;container=0;" parent="1" vertex="1">
          <mxGeometry x="1364" y="820.5" width="43" height="29" as="geometry" />
        </mxCell>
        <mxCell id="mdggnKEjDzfK467Z8Jay-4" style="edgeStyle=orthogonalEdgeStyle;rounded=0;orthogonalLoop=1;jettySize=auto;html=1;entryX=0;entryY=0.5;entryDx=0;entryDy=0;" edge="1" parent="1" source="mdggnKEjDzfK467Z8Jay-2" target="CR4Q3jNyHGY_8PaVD7FN-28">
          <mxGeometry relative="1" as="geometry" />
        </mxCell>
        <mxCell id="mdggnKEjDzfK467Z8Jay-2" value="Email" style="rounded=1;whiteSpace=wrap;html=1;" vertex="1" parent="1">
          <mxGeometry x="711" y="425.5" width="93" height="34" as="geometry" />
        </mxCell>
      </root>
    </mxGraphModel>
  </diagram>
  <diagram id="pFRMF9_bPupy94r2RbQM" name="Page-2">
    <mxGraphModel dx="1673" dy="868" grid="0" gridSize="10" guides="1" tooltips="1" connect="1" arrows="1" fold="1" page="1" pageScale="1" pageWidth="4681" pageHeight="3300" math="0" shadow="0">
      <root>
        <mxCell id="0" />
        <mxCell id="1" parent="0" />
        <mxCell id="Tvymq6ojsH8nSBC88g3e-12" style="edgeStyle=orthogonalEdgeStyle;rounded=0;orthogonalLoop=1;jettySize=auto;html=1;entryX=0;entryY=0.5;entryDx=0;entryDy=0;" edge="1" parent="1" source="Tvymq6ojsH8nSBC88g3e-1" target="Tvymq6ojsH8nSBC88g3e-9">
          <mxGeometry relative="1" as="geometry" />
        </mxCell>
        <mxCell id="Tvymq6ojsH8nSBC88g3e-1" value="/api/authenticate" style="rounded=1;whiteSpace=wrap;html=1;" vertex="1" parent="1">
          <mxGeometry x="325" y="251" width="118" height="40" as="geometry" />
        </mxCell>
        <mxCell id="Tvymq6ojsH8nSBC88g3e-7" style="edgeStyle=orthogonalEdgeStyle;rounded=0;orthogonalLoop=1;jettySize=auto;html=1;" edge="1" parent="1" source="Tvymq6ojsH8nSBC88g3e-3">
          <mxGeometry relative="1" as="geometry">
            <mxPoint x="793.0689655172414" y="182" as="targetPoint" />
          </mxGeometry>
        </mxCell>
        <mxCell id="Tvymq6ojsH8nSBC88g3e-3" value="True" style="rounded=1;whiteSpace=wrap;html=1;" vertex="1" parent="1">
          <mxGeometry x="575" y="152" width="120" height="60" as="geometry" />
        </mxCell>
        <mxCell id="Tvymq6ojsH8nSBC88g3e-4" value="False" style="rounded=1;whiteSpace=wrap;html=1;" vertex="1" parent="1">
          <mxGeometry x="575" y="323" width="120" height="60" as="geometry" />
        </mxCell>
        <mxCell id="Tvymq6ojsH8nSBC88g3e-8" value="Login Successful" style="text;html=1;align=left;verticalAlign=middle;whiteSpace=wrap;rounded=0;" vertex="1" parent="1">
          <mxGeometry x="801" y="167" width="60" height="30" as="geometry" />
        </mxCell>
        <mxCell id="Tvymq6ojsH8nSBC88g3e-10" style="edgeStyle=orthogonalEdgeStyle;rounded=0;orthogonalLoop=1;jettySize=auto;html=1;entryX=0.5;entryY=1;entryDx=0;entryDy=0;exitX=1;exitY=0.5;exitDx=0;exitDy=0;" edge="1" parent="1" source="Tvymq6ojsH8nSBC88g3e-9" target="Tvymq6ojsH8nSBC88g3e-3">
          <mxGeometry relative="1" as="geometry" />
        </mxCell>
        <mxCell id="Tvymq6ojsH8nSBC88g3e-11" style="edgeStyle=orthogonalEdgeStyle;rounded=0;orthogonalLoop=1;jettySize=auto;html=1;entryX=0.5;entryY=0;entryDx=0;entryDy=0;exitX=1;exitY=0.5;exitDx=0;exitDy=0;" edge="1" parent="1" source="Tvymq6ojsH8nSBC88g3e-9" target="Tvymq6ojsH8nSBC88g3e-4">
          <mxGeometry relative="1" as="geometry" />
        </mxCell>
        <mxCell id="Tvymq6ojsH8nSBC88g3e-9" value="fun" style="ellipse;whiteSpace=wrap;html=1;aspect=fixed;" vertex="1" parent="1">
          <mxGeometry x="514" y="244.5" width="53" height="53" as="geometry" />
        </mxCell>
        <mxCell id="8npxKVq9TG926n9zQ3Bi-3" style="edgeStyle=orthogonalEdgeStyle;rounded=0;orthogonalLoop=1;jettySize=auto;html=1;entryX=0;entryY=0.5;entryDx=0;entryDy=0;" edge="1" parent="1" source="8npxKVq9TG926n9zQ3Bi-1" target="8npxKVq9TG926n9zQ3Bi-2">
          <mxGeometry relative="1" as="geometry" />
        </mxCell>
        <mxCell id="8npxKVq9TG926n9zQ3Bi-1" value="{&lt;br&gt;phone : 12345&lt;br&gt;&lt;div style=&quot;&quot;&gt;&lt;span style=&quot;background-color: transparent; color: light-dark(rgb(0, 0, 0), rgb(255, 255, 255));&quot;&gt;PIN : 5555&lt;/span&gt;&lt;/div&gt;&lt;div style=&quot;&quot;&gt;&lt;span style=&quot;background-color: transparent; color: light-dark(rgb(0, 0, 0), rgb(255, 255, 255));&quot;&gt;euser : tenat&lt;/span&gt;&lt;/div&gt;}" style="whiteSpace=wrap;html=1;aspect=fixed;align=left;spacing=13;" vertex="1" parent="1">
          <mxGeometry x="1104" y="341" width="118" height="118" as="geometry" />
        </mxCell>
        <mxCell id="8npxKVq9TG926n9zQ3Bi-5" style="edgeStyle=orthogonalEdgeStyle;rounded=0;orthogonalLoop=1;jettySize=auto;html=1;entryX=0;entryY=0.5;entryDx=0;entryDy=0;" edge="1" parent="1" source="8npxKVq9TG926n9zQ3Bi-2" target="8npxKVq9TG926n9zQ3Bi-4">
          <mxGeometry relative="1" as="geometry" />
        </mxCell>
        <mxCell id="8npxKVq9TG926n9zQ3Bi-2" value="" style="ellipse;whiteSpace=wrap;html=1;aspect=fixed;" vertex="1" parent="1">
          <mxGeometry x="1328" y="360" width="80" height="80" as="geometry" />
        </mxCell>
        <mxCell id="8npxKVq9TG926n9zQ3Bi-4" value="from Tenat select count(*) where phone = 12345" style="rounded=0;whiteSpace=wrap;html=1;" vertex="1" parent="1">
          <mxGeometry x="1498" y="379.5" width="276" height="41" as="geometry" />
        </mxCell>
        <mxCell id="8npxKVq9TG926n9zQ3Bi-8" value="" style="shape=cylinder3;whiteSpace=wrap;html=1;boundedLbl=1;backgroundOutline=1;size=15;" vertex="1" parent="1">
          <mxGeometry x="1606" y="243" width="60" height="80" as="geometry" />
        </mxCell>
        <mxCell id="8npxKVq9TG926n9zQ3Bi-9" style="edgeStyle=orthogonalEdgeStyle;rounded=0;orthogonalLoop=1;jettySize=auto;html=1;entryX=0.5;entryY=1;entryDx=0;entryDy=0;entryPerimeter=0;" edge="1" parent="1" source="8npxKVq9TG926n9zQ3Bi-4" target="8npxKVq9TG926n9zQ3Bi-8">
          <mxGeometry relative="1" as="geometry" />
        </mxCell>
        <mxCell id="8npxKVq9TG926n9zQ3Bi-12" style="edgeStyle=orthogonalEdgeStyle;rounded=0;orthogonalLoop=1;jettySize=auto;html=1;entryX=0.5;entryY=1;entryDx=0;entryDy=0;" edge="1" parent="1" source="8npxKVq9TG926n9zQ3Bi-10" target="Tvymq6ojsH8nSBC88g3e-4">
          <mxGeometry relative="1" as="geometry" />
        </mxCell>
        <mxCell id="8npxKVq9TG926n9zQ3Bi-10" value="0" style="ellipse;whiteSpace=wrap;html=1;aspect=fixed;" vertex="1" parent="1">
          <mxGeometry x="1401" y="469" width="38" height="38" as="geometry" />
        </mxCell>
        <mxCell id="8npxKVq9TG926n9zQ3Bi-11" value="1" style="ellipse;whiteSpace=wrap;html=1;aspect=fixed;" vertex="1" parent="1">
          <mxGeometry x="1842" y="377" width="38" height="38" as="geometry" />
        </mxCell>
        <mxCell id="8npxKVq9TG926n9zQ3Bi-14" style="edgeStyle=orthogonalEdgeStyle;rounded=0;orthogonalLoop=1;jettySize=auto;html=1;" edge="1" parent="1" source="8npxKVq9TG926n9zQ3Bi-13">
          <mxGeometry relative="1" as="geometry">
            <mxPoint x="1679" y="504.4999999999999" as="targetPoint" />
          </mxGeometry>
        </mxCell>
        <mxCell id="8npxKVq9TG926n9zQ3Bi-13" value="from Tenat select PIN where phone = 12345" style="rounded=0;whiteSpace=wrap;html=1;" vertex="1" parent="1">
          <mxGeometry x="1731" y="484" width="260" height="41" as="geometry" />
        </mxCell>
        <mxCell id="8npxKVq9TG926n9zQ3Bi-15" value="pass_db" style="rounded=1;whiteSpace=wrap;html=1;" vertex="1" parent="1">
          <mxGeometry x="1560" y="479" width="120" height="60" as="geometry" />
        </mxCell>
        <mxCell id="8npxKVq9TG926n9zQ3Bi-16" value="&lt;span style=&quot;color: rgb(0, 0, 0); font-family: Helvetica; font-size: 12px; font-style: normal; font-variant-ligatures: normal; font-variant-caps: normal; font-weight: 400; letter-spacing: normal; orphans: 2; text-align: left; text-indent: 0px; text-transform: none; widows: 2; word-spacing: 0px; -webkit-text-stroke-width: 0px; white-space: normal; background-color: rgb(251, 251, 251); text-decoration-thickness: initial; text-decoration-style: initial; text-decoration-color: initial; display: inline !important; float: none;&quot;&gt;5555&lt;/span&gt;" style="text;whiteSpace=wrap;html=1;" vertex="1" parent="1">
          <mxGeometry x="1595.0003448275866" y="556.9986206896551" width="55" height="36" as="geometry" />
        </mxCell>
        <mxCell id="8npxKVq9TG926n9zQ3Bi-17" value="set up mysql database&lt;div&gt;create two schema&lt;/div&gt;&lt;div&gt;install node&lt;/div&gt;&lt;div&gt;install express&lt;/div&gt;&lt;div&gt;develop api - authentication&lt;/div&gt;" style="rounded=0;whiteSpace=wrap;html=1;fontSize=19;" vertex="1" parent="1">
          <mxGeometry x="175" y="986" width="334" height="191" as="geometry" />
        </mxCell>
      </root>
    </mxGraphModel>
  </diagram>
  <diagram id="yLNyopbmuSxe8AJhfUMa" name="Page-3">
    <mxGraphModel dx="1422" dy="738" grid="0" gridSize="10" guides="1" tooltips="1" connect="1" arrows="1" fold="1" page="1" pageScale="1" pageWidth="4681" pageHeight="3300" math="0" shadow="0">
      <root>
        <mxCell id="0" />
        <mxCell id="1" parent="0" />
        <mxCell id="2C3_AEehxI7YnGevBr7k-1" value="Phone" style="rounded=1;whiteSpace=wrap;html=1;" vertex="1" parent="1">
          <mxGeometry x="232" y="163" width="120" height="60" as="geometry" />
        </mxCell>
        <mxCell id="2C3_AEehxI7YnGevBr7k-2" value="Name" style="rounded=1;whiteSpace=wrap;html=1;" vertex="1" parent="1">
          <mxGeometry x="232" y="233" width="120" height="60" as="geometry" />
        </mxCell>
        <mxCell id="2C3_AEehxI7YnGevBr7k-3" value="PIN" style="rounded=1;whiteSpace=wrap;html=1;" vertex="1" parent="1">
          <mxGeometry x="232" y="306" width="120" height="60" as="geometry" />
        </mxCell>
        <mxCell id="fqx0LfuB3bEopX0ccSi1-1" style="edgeStyle=orthogonalEdgeStyle;rounded=0;orthogonalLoop=1;jettySize=auto;html=1;" edge="1" parent="1" source="2C3_AEehxI7YnGevBr7k-4">
          <mxGeometry relative="1" as="geometry">
            <mxPoint x="835.8333333333335" y="291.0000000000001" as="targetPoint" />
          </mxGeometry>
        </mxCell>
        <mxCell id="2C3_AEehxI7YnGevBr7k-4" value="/api/register" style="rounded=1;whiteSpace=wrap;html=1;fontSize=16;" vertex="1" parent="1">
          <mxGeometry x="382" y="261" width="362" height="60" as="geometry" />
        </mxCell>
        <mxCell id="2C3_AEehxI7YnGevBr7k-6" value="PIN" style="rounded=1;whiteSpace=wrap;html=1;" vertex="1" parent="1">
          <mxGeometry x="232" y="379" width="120" height="60" as="geometry" />
        </mxCell>
        <mxCell id="fqx0LfuB3bEopX0ccSi1-3" style="edgeStyle=orthogonalEdgeStyle;rounded=0;orthogonalLoop=1;jettySize=auto;html=1;" edge="1" parent="1" source="fqx0LfuB3bEopX0ccSi1-2">
          <mxGeometry relative="1" as="geometry">
            <mxPoint x="1038.3333333333335" y="248.33333333333337" as="targetPoint" />
          </mxGeometry>
        </mxCell>
        <mxCell id="fqx0LfuB3bEopX0ccSi1-5" style="edgeStyle=orthogonalEdgeStyle;rounded=0;orthogonalLoop=1;jettySize=auto;html=1;" edge="1" parent="1" source="fqx0LfuB3bEopX0ccSi1-2">
          <mxGeometry relative="1" as="geometry">
            <mxPoint x="1038.3333333333335" y="338.33333333333337" as="targetPoint" />
          </mxGeometry>
        </mxCell>
        <mxCell id="fqx0LfuB3bEopX0ccSi1-2" value="search phone in mysql" style="rounded=1;whiteSpace=wrap;html=1;" vertex="1" parent="1">
          <mxGeometry x="835" y="261" width="120" height="60" as="geometry" />
        </mxCell>
        <mxCell id="fqx0LfuB3bEopX0ccSi1-4" value="False" style="text;html=1;align=center;verticalAlign=middle;resizable=0;points=[];autosize=1;strokeColor=none;fillColor=none;" vertex="1" parent="1">
          <mxGeometry x="1014" y="223" width="47" height="26" as="geometry" />
        </mxCell>
        <mxCell id="fqx0LfuB3bEopX0ccSi1-6" value="True" style="text;html=1;align=center;verticalAlign=middle;resizable=0;points=[];autosize=1;strokeColor=none;fillColor=none;" vertex="1" parent="1">
          <mxGeometry x="1017" y="346" width="42" height="26" as="geometry" />
        </mxCell>
        <mxCell id="fqx0LfuB3bEopX0ccSi1-7" value="INSERT Query" style="rounded=1;whiteSpace=wrap;html=1;" vertex="1" parent="1">
          <mxGeometry x="820.5" y="396" width="149" height="60" as="geometry" />
        </mxCell>
      </root>
    </mxGraphModel>
  </diagram>
  <diagram id="drIeHnyiwhmnlDEAK4jm" name="Page-4">
    <mxGraphModel dx="1185" dy="615" grid="0" gridSize="10" guides="1" tooltips="1" connect="1" arrows="1" fold="1" page="1" pageScale="1" pageWidth="4681" pageHeight="3300" math="0" shadow="0">
      <root>
        <mxCell id="0" />
        <mxCell id="1" parent="0" />
        <mxCell id="01v4B64bdvRjsK6ZS-Np-1" value="FRONT END&lt;div&gt;BACKEND&lt;/div&gt;" style="rounded=1;whiteSpace=wrap;html=1;" vertex="1" parent="1">
          <mxGeometry x="279" y="193" width="265" height="196" as="geometry" />
        </mxCell>
        <mxCell id="01v4B64bdvRjsK6ZS-Np-2" value="NODE" style="rounded=1;whiteSpace=wrap;html=1;" vertex="1" parent="1">
          <mxGeometry x="303" y="210" width="217" height="40" as="geometry" />
        </mxCell>
        <mxCell id="01v4B64bdvRjsK6ZS-Np-3" value="AWS" style="rounded=1;whiteSpace=wrap;html=1;" vertex="1" parent="1">
          <mxGeometry x="982" y="137" width="418" height="422" as="geometry" />
        </mxCell>
        <mxCell id="01v4B64bdvRjsK6ZS-Np-5" style="edgeStyle=orthogonalEdgeStyle;rounded=0;orthogonalLoop=1;jettySize=auto;html=1;" edge="1" parent="1" source="01v4B64bdvRjsK6ZS-Np-4">
          <mxGeometry relative="1" as="geometry">
            <mxPoint x="649.9250000000002" y="523" as="targetPoint" />
          </mxGeometry>
        </mxCell>
        <mxCell id="01v4B64bdvRjsK6ZS-Np-4" value="" style="image;sketch=0;aspect=fixed;html=1;points=[];align=center;fontSize=12;image=img/lib/mscae/Docker.svg;" vertex="1" parent="1">
          <mxGeometry x="1083.07" y="257" width="215.85" height="177" as="geometry" />
        </mxCell>
        <mxCell id="01v4B64bdvRjsK6ZS-Np-6" value="aws-virginia-ds-005-h78.aws.com:3000" style="rounded=1;whiteSpace=wrap;html=1;" vertex="1" parent="1">
          <mxGeometry x="468" y="524" width="342" height="30" as="geometry" />
        </mxCell>
        <mxCell id="01v4B64bdvRjsK6ZS-Np-7" value="rentkhojo.com" style="rounded=1;whiteSpace=wrap;html=1;" vertex="1" parent="1">
          <mxGeometry x="279" y="414" width="120" height="60" as="geometry" />
        </mxCell>
      </root>
    </mxGraphModel>
  </diagram>
</mxfile>
